<svg id="Layer_1" data-name="Layer 1" xmlns="http://www.w3.org/2000/svg" xmlns:xlink="http://www.w3.org/1999/xlink" viewBox="0 0 147.33 147.35"><defs><linearGradient id="linear-gradient" x1="147.91" y1="87.45" x2="2.09" y2="66.55" gradientTransform="matrix(1, 0, 0, -1, 0, 152)" gradientUnits="userSpaceOnUse"><stop offset="0" stop-color="#fbec6f"/><stop offset="0.2" stop-color="#a7711e"/><stop offset="0.42" stop-color="#fbd255"/><stop offset="0.62" stop-color="#a7711e"/><stop offset="0.81" stop-color="#fbec6f"/><stop offset="1" stop-color="#a7711e"/></linearGradient><linearGradient id="linear-gradient-2" x1="2.48" y1="76.96" x2="147.52" y2="76.96" xlink:href="#linear-gradient"/><linearGradient id="linear-gradient-3" x1="142.49" y1="76.99" x2="7.51" y2="76.99" xlink:href="#linear-gradient"/><linearGradient id="linear-gradient-4" x1="129.9" y1="75.04" x2="20.07" y2="75.04" gradientTransform="matrix(1, 0, 0, 1, 0, 0)" xlink:href="#linear-gradient"/><linearGradient id="linear-gradient-5" x1="41.85" y1="39.62" x2="106.02" y2="39.62" gradientTransform="matrix(1, 0, 0, 1, 0, 0)" xlink:href="#linear-gradient"/><linearGradient id="linear-gradient-6" x1="42.39" y1="109.06" x2="106.35" y2="109.06" gradientTransform="matrix(1, 0, 0, 1, 0, 0)" xlink:href="#linear-gradient"/><linearGradient id="linear-gradient-7" x1="26.28" y1="75.37" x2="54.52" y2="75.37" gradientTransform="matrix(1, 0, 0, 1, 0, 0)" xlink:href="#linear-gradient"/><linearGradient id="linear-gradient-8" x1="55.57" y1="74.97" x2="92.34" y2="74.97" gradientTransform="matrix(1, 0, 0, 1, 0, 0)" xlink:href="#linear-gradient"/><linearGradient id="linear-gradient-9" x1="93.5" y1="74.88" x2="121.71" y2="74.88" gradientTransform="matrix(1, 0, 0, 1, 0, 0)" xlink:href="#linear-gradient"/><linearGradient id="linear-gradient-10" x1="123.39" y1="112.83" x2="21.58" y2="112.11" xlink:href="#linear-gradient"/><linearGradient id="linear-gradient-11" x1="123.88" y1="43.36" x2="22.07" y2="42.65" xlink:href="#linear-gradient"/><linearGradient id="linear-gradient-12" x1="123.64" y1="77.21" x2="21.83" y2="76.5" xlink:href="#linear-gradient"/><linearGradient id="linear-gradient-13" x1="123.64" y1="77.39" x2="21.83" y2="76.67" xlink:href="#linear-gradient"/><linearGradient id="linear-gradient-14" x1="123.64" y1="77.23" x2="21.83" y2="76.51" xlink:href="#linear-gradient"/><linearGradient id="linear-gradient-15" x1="-22.01" y1="457.89" x2="101.26" y2="457.89" gradientTransform="matrix(0.98, 0.21, 0.21, -0.98, -46.39, 455.64)" xlink:href="#linear-gradient"/><linearGradient id="linear-gradient-16" x1="-22.01" y1="457.76" x2="101.26" y2="457.76" gradientTransform="matrix(0.98, 0.21, 0.21, -0.98, -46.39, 455.64)" xlink:href="#linear-gradient"/><linearGradient id="linear-gradient-17" x1="-22.01" y1="457.49" x2="101.26" y2="457.49" gradientTransform="matrix(0.98, 0.21, 0.21, -0.98, -46.39, 455.64)" xlink:href="#linear-gradient"/><linearGradient id="linear-gradient-18" x1="-22.01" y1="457.15" x2="101.26" y2="457.15" gradientTransform="matrix(0.98, 0.21, 0.21, -0.98, -46.39, 455.64)" xlink:href="#linear-gradient"/><linearGradient id="linear-gradient-19" x1="-22.01" y1="455.51" x2="101.26" y2="455.51" gradientTransform="matrix(0.98, 0.21, 0.21, -0.98, -46.39, 455.64)" xlink:href="#linear-gradient"/><linearGradient id="linear-gradient-20" x1="-22.01" y1="455.85" x2="101.26" y2="455.85" gradientTransform="matrix(0.98, 0.21, 0.21, -0.98, -46.39, 455.64)" xlink:href="#linear-gradient"/><linearGradient id="linear-gradient-21" x1="-22.01" y1="454.85" x2="101.26" y2="454.85" gradientTransform="matrix(0.98, 0.21, 0.21, -0.98, -46.39, 455.64)" xlink:href="#linear-gradient"/><linearGradient id="linear-gradient-22" x1="-22.01" y1="453.88" x2="101.26" y2="453.88" gradientTransform="matrix(0.98, 0.21, 0.21, -0.98, -46.39, 455.64)" xlink:href="#linear-gradient"/><linearGradient id="linear-gradient-23" x1="-22.01" y1="453.02" x2="101.26" y2="453.02" gradientTransform="matrix(0.98, 0.21, 0.21, -0.98, -46.39, 455.64)" xlink:href="#linear-gradient"/><linearGradient id="linear-gradient-24" x1="-22.01" y1="451.91" x2="101.26" y2="451.91" gradientTransform="matrix(0.98, 0.21, 0.21, -0.98, -46.39, 455.64)" xlink:href="#linear-gradient"/><linearGradient id="linear-gradient-25" x1="-22.01" y1="450.78" x2="101.26" y2="450.78" gradientTransform="matrix(0.98, 0.21, 0.21, -0.98, -46.39, 455.64)" xlink:href="#linear-gradient"/><linearGradient id="linear-gradient-26" x1="-22.01" y1="449.23" x2="101.26" y2="449.23" gradientTransform="matrix(0.98, 0.21, 0.21, -0.98, -46.39, 455.64)" xlink:href="#linear-gradient"/><linearGradient id="linear-gradient-27" x1="-22.01" y1="447.56" x2="101.26" y2="447.56" gradientTransform="matrix(0.98, 0.21, 0.21, -0.98, -46.39, 455.64)" xlink:href="#linear-gradient"/><linearGradient id="linear-gradient-28" x1="-22.01" y1="446.19" x2="101.26" y2="446.19" gradientTransform="matrix(0.98, 0.21, 0.21, -0.98, -46.39, 455.64)" xlink:href="#linear-gradient"/><linearGradient id="linear-gradient-29" x1="-22.01" y1="445.09" x2="101.26" y2="445.09" gradientTransform="matrix(0.98, 0.21, 0.21, -0.98, -46.39, 455.64)" xlink:href="#linear-gradient"/><linearGradient id="linear-gradient-30" x1="-22.01" y1="443.71" x2="101.26" y2="443.71" gradientTransform="matrix(0.98, 0.21, 0.21, -0.98, -46.39, 455.64)" xlink:href="#linear-gradient"/><linearGradient id="linear-gradient-31" x1="-22.01" y1="442" x2="101.26" y2="442" gradientTransform="matrix(0.98, 0.21, 0.21, -0.98, -46.39, 455.64)" xlink:href="#linear-gradient"/><linearGradient id="linear-gradient-32" x1="-22.01" y1="440.33" x2="101.26" y2="440.33" gradientTransform="matrix(0.98, 0.21, 0.21, -0.98, -46.39, 455.64)" xlink:href="#linear-gradient"/><linearGradient id="linear-gradient-33" x1="-22.01" y1="437.09" x2="101.26" y2="437.09" gradientTransform="matrix(0.98, 0.21, 0.21, -0.98, -46.39, 455.64)" xlink:href="#linear-gradient"/><linearGradient id="linear-gradient-34" x1="-22.01" y1="435.12" x2="101.26" y2="435.12" gradientTransform="matrix(0.98, 0.21, 0.21, -0.98, -46.39, 455.64)" xlink:href="#linear-gradient"/><linearGradient id="linear-gradient-35" x1="-22.01" y1="433.14" x2="101.26" y2="433.14" gradientTransform="matrix(0.98, 0.21, 0.21, -0.98, -46.39, 455.64)" xlink:href="#linear-gradient"/><linearGradient id="linear-gradient-36" x1="-22.01" y1="431.44" x2="101.26" y2="431.44" gradientTransform="matrix(0.98, 0.21, 0.21, -0.98, -46.39, 455.64)" xlink:href="#linear-gradient"/><linearGradient id="linear-gradient-37" x1="-22.01" y1="430.14" x2="101.26" y2="430.14" gradientTransform="matrix(0.98, 0.21, 0.21, -0.98, -46.39, 455.64)" xlink:href="#linear-gradient"/><linearGradient id="linear-gradient-38" x1="-22.01" y1="427.35" x2="101.26" y2="427.35" gradientTransform="matrix(0.98, 0.21, 0.21, -0.98, -46.39, 455.64)" xlink:href="#linear-gradient"/><linearGradient id="linear-gradient-39" x1="-22.01" y1="425.27" x2="101.26" y2="425.27" gradientTransform="matrix(0.98, 0.21, 0.21, -0.98, -46.39, 455.64)" xlink:href="#linear-gradient"/><linearGradient id="linear-gradient-40" x1="-22.01" y1="421.75" x2="101.26" y2="421.75" gradientTransform="matrix(0.98, 0.21, 0.21, -0.98, -46.39, 455.64)" xlink:href="#linear-gradient"/><linearGradient id="linear-gradient-41" x1="-22.01" y1="419.36" x2="101.26" y2="419.36" gradientTransform="matrix(0.98, 0.21, 0.21, -0.98, -46.39, 455.64)" xlink:href="#linear-gradient"/><linearGradient id="linear-gradient-42" x1="-22.01" y1="416.4" x2="101.26" y2="416.4" gradientTransform="matrix(0.98, 0.21, 0.21, -0.98, -46.39, 455.64)" xlink:href="#linear-gradient"/><linearGradient id="linear-gradient-43" x1="-22.01" y1="413.82" x2="101.26" y2="413.82" gradientTransform="matrix(0.98, 0.21, 0.21, -0.98, -46.39, 455.64)" xlink:href="#linear-gradient"/><linearGradient id="linear-gradient-44" x1="-22.01" y1="411.35" x2="101.26" y2="411.35" gradientTransform="matrix(0.98, 0.21, 0.21, -0.98, -46.39, 455.64)" xlink:href="#linear-gradient"/><linearGradient id="linear-gradient-45" x1="-22.01" y1="408.69" x2="101.26" y2="408.69" gradientTransform="matrix(0.98, 0.21, 0.21, -0.98, -46.39, 455.64)" xlink:href="#linear-gradient"/><linearGradient id="linear-gradient-46" x1="-22.01" y1="405.7" x2="101.26" y2="405.7" gradientTransform="matrix(0.98, 0.21, 0.21, -0.98, -46.39, 455.64)" xlink:href="#linear-gradient"/><linearGradient id="linear-gradient-47" x1="-22.01" y1="403.16" x2="101.26" y2="403.16" gradientTransform="matrix(0.98, 0.21, 0.21, -0.98, -46.39, 455.64)" xlink:href="#linear-gradient"/><linearGradient id="linear-gradient-48" x1="-22.01" y1="399.69" x2="101.26" y2="399.69" gradientTransform="matrix(0.98, 0.21, 0.21, -0.98, -46.39, 455.64)" xlink:href="#linear-gradient"/><linearGradient id="linear-gradient-49" x1="-22.01" y1="396.5" x2="101.26" y2="396.5" gradientTransform="matrix(0.98, 0.21, 0.21, -0.98, -46.39, 455.64)" xlink:href="#linear-gradient"/><linearGradient id="linear-gradient-50" x1="-22.01" y1="393.74" x2="101.26" y2="393.74" gradientTransform="matrix(0.98, 0.21, 0.21, -0.98, -46.39, 455.64)" xlink:href="#linear-gradient"/><linearGradient id="linear-gradient-51" x1="-22.01" y1="390.74" x2="101.26" y2="390.74" gradientTransform="matrix(0.98, 0.21, 0.21, -0.98, -46.39, 455.64)" xlink:href="#linear-gradient"/><linearGradient id="linear-gradient-52" x1="-22.01" y1="388.01" x2="101.26" y2="388.01" gradientTransform="matrix(0.98, 0.21, 0.21, -0.98, -46.39, 455.64)" xlink:href="#linear-gradient"/><linearGradient id="linear-gradient-53" x1="-22.01" y1="385.07" x2="101.26" y2="385.07" gradientTransform="matrix(0.98, 0.21, 0.21, -0.98, -46.39, 455.64)" xlink:href="#linear-gradient"/><linearGradient id="linear-gradient-54" x1="-22.01" y1="381.57" x2="101.26" y2="381.57" gradientTransform="matrix(0.98, 0.21, 0.21, -0.98, -46.39, 455.64)" xlink:href="#linear-gradient"/><linearGradient id="linear-gradient-55" x1="-22.01" y1="378.76" x2="101.26" y2="378.76" gradientTransform="matrix(0.98, 0.21, 0.21, -0.98, -46.39, 455.64)" xlink:href="#linear-gradient"/><linearGradient id="linear-gradient-56" x1="-22.01" y1="376.17" x2="101.26" y2="376.17" gradientTransform="matrix(0.98, 0.21, 0.21, -0.98, -46.39, 455.64)" xlink:href="#linear-gradient"/><linearGradient id="linear-gradient-57" x1="-22.01" y1="373.86" x2="101.26" y2="373.86" gradientTransform="matrix(0.98, 0.21, 0.21, -0.98, -46.39, 455.64)" xlink:href="#linear-gradient"/><linearGradient id="linear-gradient-58" x1="-22.01" y1="371.37" x2="101.26" y2="371.37" gradientTransform="matrix(0.98, 0.21, 0.21, -0.98, -46.39, 455.64)" xlink:href="#linear-gradient"/><linearGradient id="linear-gradient-59" x1="-22.01" y1="368.52" x2="101.26" y2="368.52" gradientTransform="matrix(0.98, 0.21, 0.21, -0.98, -46.39, 455.64)" xlink:href="#linear-gradient"/><linearGradient id="linear-gradient-60" x1="-22.01" y1="366.7" x2="101.26" y2="366.7" gradientTransform="matrix(0.98, 0.21, 0.21, -0.98, -46.39, 455.64)" xlink:href="#linear-gradient"/><linearGradient id="linear-gradient-61" x1="-22.01" y1="364.59" x2="101.26" y2="364.59" gradientTransform="matrix(0.98, 0.21, 0.21, -0.98, -46.39, 455.64)" xlink:href="#linear-gradient"/><linearGradient id="linear-gradient-62" x1="-22.01" y1="362.39" x2="101.26" y2="362.39" gradientTransform="matrix(0.98, 0.21, 0.21, -0.98, -46.39, 455.64)" xlink:href="#linear-gradient"/><linearGradient id="linear-gradient-63" x1="-22.01" y1="360.47" x2="101.26" y2="360.47" gradientTransform="matrix(0.98, 0.21, 0.21, -0.98, -46.39, 455.64)" xlink:href="#linear-gradient"/><linearGradient id="linear-gradient-64" x1="-22.01" y1="358.87" x2="101.26" y2="358.87" gradientTransform="matrix(0.98, 0.21, 0.21, -0.98, -46.39, 455.64)" xlink:href="#linear-gradient"/><linearGradient id="linear-gradient-65" x1="-22.01" y1="356.88" x2="101.26" y2="356.88" gradientTransform="matrix(0.98, 0.21, 0.21, -0.98, -46.39, 455.64)" xlink:href="#linear-gradient"/><linearGradient id="linear-gradient-66" x1="-22.01" y1="355.07" x2="101.26" y2="355.07" gradientTransform="matrix(0.98, 0.21, 0.21, -0.98, -46.39, 455.64)" xlink:href="#linear-gradient"/><linearGradient id="linear-gradient-67" x1="-22.01" y1="352.13" x2="101.26" y2="352.13" gradientTransform="matrix(0.98, 0.21, 0.21, -0.98, -46.39, 455.64)" xlink:href="#linear-gradient"/><linearGradient id="linear-gradient-68" x1="-22.01" y1="350.45" x2="101.26" y2="350.45" gradientTransform="matrix(0.98, 0.21, 0.21, -0.98, -46.39, 455.64)" xlink:href="#linear-gradient"/><linearGradient id="linear-gradient-69" x1="-22.01" y1="348.91" x2="101.26" y2="348.91" gradientTransform="matrix(0.98, 0.21, 0.21, -0.98, -46.39, 455.64)" xlink:href="#linear-gradient"/><linearGradient id="linear-gradient-70" x1="-22.01" y1="347.74" x2="101.26" y2="347.74" gradientTransform="matrix(0.98, 0.21, 0.21, -0.98, -46.39, 455.64)" xlink:href="#linear-gradient"/><linearGradient id="linear-gradient-71" x1="-22.01" y1="346.5" x2="101.26" y2="346.5" gradientTransform="matrix(0.98, 0.21, 0.21, -0.98, -46.39, 455.64)" xlink:href="#linear-gradient"/><linearGradient id="linear-gradient-72" x1="-22.01" y1="345.62" x2="101.26" y2="345.62" gradientTransform="matrix(0.98, 0.21, 0.21, -0.98, -46.39, 455.64)" xlink:href="#linear-gradient"/><linearGradient id="linear-gradient-73" x1="-22.01" y1="344.31" x2="101.26" y2="344.31" gradientTransform="matrix(0.98, 0.21, 0.21, -0.98, -46.39, 455.64)" xlink:href="#linear-gradient"/><linearGradient id="linear-gradient-74" x1="-22.01" y1="342.32" x2="101.26" y2="342.32" gradientTransform="matrix(0.98, 0.21, 0.21, -0.98, -46.39, 455.64)" xlink:href="#linear-gradient"/><linearGradient id="linear-gradient-75" x1="-22.01" y1="341.2" x2="101.26" y2="341.2" gradientTransform="matrix(0.98, 0.21, 0.21, -0.98, -46.39, 455.64)" xlink:href="#linear-gradient"/><linearGradient id="linear-gradient-76" x1="-22.01" y1="340.47" x2="101.26" y2="340.47" gradientTransform="matrix(0.98, 0.21, 0.21, -0.98, -46.39, 455.64)" xlink:href="#linear-gradient"/><linearGradient id="linear-gradient-77" x1="-22.01" y1="339.65" x2="101.26" y2="339.65" gradientTransform="matrix(0.98, 0.21, 0.21, -0.98, -46.39, 455.64)" xlink:href="#linear-gradient"/><linearGradient id="linear-gradient-78" x1="-22.01" y1="338.92" x2="101.26" y2="338.92" gradientTransform="matrix(0.98, 0.21, 0.21, -0.98, -46.39, 455.64)" xlink:href="#linear-gradient"/><linearGradient id="linear-gradient-79" x1="-22.01" y1="338.36" x2="101.26" y2="338.36" gradientTransform="matrix(0.98, 0.21, 0.21, -0.98, -46.39, 455.64)" xlink:href="#linear-gradient"/><linearGradient id="linear-gradient-80" x1="-22.01" y1="337.83" x2="101.26" y2="337.83" gradientTransform="matrix(0.98, 0.21, 0.21, -0.98, -46.39, 455.64)" xlink:href="#linear-gradient"/><linearGradient id="linear-gradient-81" x1="-22.01" y1="337.54" x2="101.26" y2="337.54" gradientTransform="matrix(0.98, 0.21, 0.21, -0.98, -46.39, 455.64)" xlink:href="#linear-gradient"/><linearGradient id="linear-gradient-82" x1="-22.01" y1="338.43" x2="101.26" y2="338.43" gradientTransform="matrix(0.98, 0.21, 0.21, -0.98, -46.39, 455.64)" xlink:href="#linear-gradient"/><linearGradient id="linear-gradient-83" x1="-22.01" y1="337.37" x2="101.26" y2="337.37" gradientTransform="matrix(0.98, 0.21, 0.21, -0.98, -46.39, 455.64)" xlink:href="#linear-gradient"/><linearGradient id="linear-gradient-84" x1="-22.01" y1="337.49" x2="101.26" y2="337.49" gradientTransform="matrix(0.98, 0.21, 0.21, -0.98, -46.39, 455.64)" xlink:href="#linear-gradient"/><linearGradient id="linear-gradient-85" x1="-22.01" y1="337.77" x2="101.26" y2="337.77" gradientTransform="matrix(0.98, 0.21, 0.21, -0.98, -46.39, 455.64)" xlink:href="#linear-gradient"/><linearGradient id="linear-gradient-86" x1="-22.01" y1="338.07" x2="101.26" y2="338.07" gradientTransform="matrix(0.98, 0.21, 0.21, -0.98, -46.39, 455.64)" xlink:href="#linear-gradient"/><linearGradient id="linear-gradient-87" x1="-22.01" y1="339.75" x2="101.26" y2="339.75" gradientTransform="matrix(0.98, 0.21, 0.21, -0.98, -46.39, 455.64)" xlink:href="#linear-gradient"/><linearGradient id="linear-gradient-88" x1="-22.01" y1="339.38" x2="101.26" y2="339.38" gradientTransform="matrix(0.98, 0.21, 0.21, -0.98, -46.39, 455.64)" xlink:href="#linear-gradient"/><linearGradient id="linear-gradient-89" x1="-22.01" y1="340.38" x2="101.26" y2="340.38" gradientTransform="matrix(0.98, 0.21, 0.21, -0.98, -46.39, 455.64)" xlink:href="#linear-gradient"/><linearGradient id="linear-gradient-90" x1="-22.01" y1="341.35" x2="101.26" y2="341.35" gradientTransform="matrix(0.98, 0.21, 0.21, -0.98, -46.39, 455.64)" xlink:href="#linear-gradient"/><linearGradient id="linear-gradient-91" x1="-22.01" y1="342.21" x2="101.26" y2="342.21" gradientTransform="matrix(0.98, 0.21, 0.21, -0.98, -46.39, 455.64)" xlink:href="#linear-gradient"/><linearGradient id="linear-gradient-92" x1="-22.01" y1="343.33" x2="101.26" y2="343.33" gradientTransform="matrix(0.98, 0.21, 0.21, -0.98, -46.39, 455.64)" xlink:href="#linear-gradient"/><linearGradient id="linear-gradient-93" x1="-22.01" y1="344.42" x2="101.26" y2="344.42" gradientTransform="matrix(0.98, 0.21, 0.21, -0.98, -46.39, 455.64)" xlink:href="#linear-gradient"/><linearGradient id="linear-gradient-94" x1="-22.01" y1="345.95" x2="101.26" y2="345.95" gradientTransform="matrix(0.98, 0.21, 0.21, -0.98, -46.39, 455.64)" xlink:href="#linear-gradient"/><linearGradient id="linear-gradient-95" x1="-22.01" y1="347.67" x2="101.26" y2="347.67" gradientTransform="matrix(0.98, 0.21, 0.21, -0.98, -46.39, 455.64)" xlink:href="#linear-gradient"/><linearGradient id="linear-gradient-96" x1="-22.01" y1="349.01" x2="101.26" y2="349.01" gradientTransform="matrix(0.98, 0.21, 0.21, -0.98, -46.39, 455.64)" xlink:href="#linear-gradient"/><linearGradient id="linear-gradient-97" x1="-22.01" y1="350.1" x2="101.26" y2="350.1" gradientTransform="matrix(0.98, 0.21, 0.21, -0.98, -46.39, 455.64)" xlink:href="#linear-gradient"/><linearGradient id="linear-gradient-98" x1="-22.01" y1="351.49" x2="101.26" y2="351.49" gradientTransform="matrix(0.98, 0.21, 0.21, -0.98, -46.39, 455.64)" xlink:href="#linear-gradient"/><linearGradient id="linear-gradient-99" x1="-22.01" y1="353.19" x2="101.26" y2="353.19" gradientTransform="matrix(0.98, 0.21, 0.21, -0.98, -46.39, 455.64)" xlink:href="#linear-gradient"/><linearGradient id="linear-gradient-100" x1="-22.01" y1="354.9" x2="101.26" y2="354.9" gradientTransform="matrix(0.98, 0.21, 0.21, -0.98, -46.39, 455.64)" xlink:href="#linear-gradient"/><linearGradient id="linear-gradient-101" x1="-22.01" y1="358.08" x2="101.26" y2="358.08" gradientTransform="matrix(0.98, 0.21, 0.21, -0.98, -46.39, 455.64)" xlink:href="#linear-gradient"/><linearGradient id="linear-gradient-102" x1="-22.01" y1="360.05" x2="101.26" y2="360.05" gradientTransform="matrix(0.98, 0.21, 0.21, -0.98, -46.39, 455.64)" xlink:href="#linear-gradient"/><linearGradient id="linear-gradient-103" x1="-22.01" y1="362.06" x2="101.26" y2="362.06" gradientTransform="matrix(0.98, 0.21, 0.21, -0.98, -46.39, 455.64)" xlink:href="#linear-gradient"/><linearGradient id="linear-gradient-104" x1="-22.01" y1="363.72" x2="101.26" y2="363.72" gradientTransform="matrix(0.98, 0.21, 0.21, -0.98, -46.39, 455.64)" xlink:href="#linear-gradient"/><linearGradient id="linear-gradient-105" x1="-22.01" y1="365.05" x2="101.26" y2="365.05" gradientTransform="matrix(0.98, 0.21, 0.21, -0.98, -46.39, 455.64)" xlink:href="#linear-gradient"/><linearGradient id="linear-gradient-106" x1="-22.01" y1="367.86" x2="101.26" y2="367.86" gradientTransform="matrix(0.98, 0.21, 0.21, -0.98, -46.39, 455.64)" xlink:href="#linear-gradient"/><linearGradient id="linear-gradient-107" x1="-22.01" y1="369.89" x2="101.26" y2="369.89" gradientTransform="matrix(0.98, 0.21, 0.21, -0.98, -46.39, 455.64)" xlink:href="#linear-gradient"/><linearGradient id="linear-gradient-108" x1="-22.01" y1="373.44" x2="101.26" y2="373.44" gradientTransform="matrix(0.98, 0.21, 0.21, -0.98, -46.39, 455.64)" xlink:href="#linear-gradient"/><linearGradient id="linear-gradient-109" x1="-22.01" y1="375.79" x2="101.26" y2="375.79" gradientTransform="matrix(0.98, 0.21, 0.21, -0.98, -46.39, 455.64)" xlink:href="#linear-gradient"/><linearGradient id="linear-gradient-110" x1="-22.01" y1="378.75" x2="101.26" y2="378.75" gradientTransform="matrix(0.98, 0.21, 0.21, -0.98, -46.39, 455.64)" xlink:href="#linear-gradient"/><linearGradient id="linear-gradient-111" x1="-22.01" y1="381.34" x2="101.26" y2="381.34" gradientTransform="matrix(0.98, 0.21, 0.21, -0.98, -46.39, 455.64)" xlink:href="#linear-gradient"/><linearGradient id="linear-gradient-112" x1="-22.01" y1="383.8" x2="101.26" y2="383.8" gradientTransform="matrix(0.98, 0.21, 0.21, -0.98, -46.39, 455.64)" xlink:href="#linear-gradient"/><linearGradient id="linear-gradient-113" x1="-22.01" y1="386.48" x2="101.26" y2="386.48" gradientTransform="matrix(0.98, 0.21, 0.21, -0.98, -46.39, 455.64)" xlink:href="#linear-gradient"/><linearGradient id="linear-gradient-114" x1="-22.01" y1="389.48" x2="101.26" y2="389.48" gradientTransform="matrix(0.98, 0.21, 0.21, -0.98, -46.39, 455.64)" xlink:href="#linear-gradient"/><linearGradient id="linear-gradient-115" x1="-22.01" y1="391.98" x2="101.26" y2="391.98" gradientTransform="matrix(0.98, 0.21, 0.21, -0.98, -46.39, 455.64)" xlink:href="#linear-gradient"/><linearGradient id="linear-gradient-116" x1="-22.01" y1="395.46" x2="101.26" y2="395.46" gradientTransform="matrix(0.98, 0.21, 0.21, -0.98, -46.39, 455.64)" xlink:href="#linear-gradient"/><linearGradient id="linear-gradient-117" x1="-22.01" y1="398.68" x2="101.26" y2="398.68" gradientTransform="matrix(0.98, 0.21, 0.21, -0.98, -46.39, 455.64)" xlink:href="#linear-gradient"/><linearGradient id="linear-gradient-118" x1="-22.01" y1="401.41" x2="101.26" y2="401.41" gradientTransform="matrix(0.98, 0.21, 0.21, -0.98, -46.39, 455.64)" xlink:href="#linear-gradient"/><linearGradient id="linear-gradient-119" x1="-22.01" y1="404.4" x2="101.26" y2="404.4" gradientTransform="matrix(0.98, 0.21, 0.21, -0.98, -46.39, 455.64)" xlink:href="#linear-gradient"/><linearGradient id="linear-gradient-120" x1="-22.01" y1="407.13" x2="101.26" y2="407.13" gradientTransform="matrix(0.98, 0.21, 0.21, -0.98, -46.39, 455.64)" xlink:href="#linear-gradient"/><linearGradient id="linear-gradient-121" x1="-22.01" y1="410.08" x2="101.26" y2="410.08" gradientTransform="matrix(0.98, 0.21, 0.21, -0.98, -46.39, 455.64)" xlink:href="#linear-gradient"/><linearGradient id="linear-gradient-122" x1="-22.01" y1="413.57" x2="101.26" y2="413.57" gradientTransform="matrix(0.98, 0.21, 0.21, -0.98, -46.39, 455.64)" xlink:href="#linear-gradient"/><linearGradient id="linear-gradient-123" x1="-22.01" y1="416.4" x2="101.26" y2="416.4" gradientTransform="matrix(0.98, 0.21, 0.21, -0.98, -46.39, 455.64)" xlink:href="#linear-gradient"/><linearGradient id="linear-gradient-124" x1="-22.01" y1="419.01" x2="101.26" y2="419.01" gradientTransform="matrix(0.98, 0.21, 0.21, -0.98, -46.39, 455.64)" xlink:href="#linear-gradient"/><linearGradient id="linear-gradient-125" x1="-22.01" y1="421.32" x2="101.26" y2="421.32" gradientTransform="matrix(0.98, 0.21, 0.21, -0.98, -46.39, 455.64)" xlink:href="#linear-gradient"/><linearGradient id="linear-gradient-126" x1="-22.01" y1="423.83" x2="101.26" y2="423.83" gradientTransform="matrix(0.98, 0.21, 0.21, -0.98, -46.39, 455.64)" xlink:href="#linear-gradient"/><linearGradient id="linear-gradient-127" x1="-22.01" y1="426.65" x2="101.26" y2="426.65" gradientTransform="matrix(0.98, 0.21, 0.21, -0.98, -46.39, 455.64)" xlink:href="#linear-gradient"/><linearGradient id="linear-gradient-128" x1="-22.01" y1="428.46" x2="101.26" y2="428.46" gradientTransform="matrix(0.98, 0.21, 0.21, -0.98, -46.39, 455.64)" xlink:href="#linear-gradient"/><linearGradient id="linear-gradient-129" x1="-22.01" y1="430.61" x2="101.26" y2="430.61" gradientTransform="matrix(0.98, 0.21, 0.21, -0.98, -46.39, 455.64)" xlink:href="#linear-gradient"/><linearGradient id="linear-gradient-130" x1="-22.01" y1="432.83" x2="101.26" y2="432.83" gradientTransform="matrix(0.98, 0.21, 0.21, -0.98, -46.39, 455.64)" xlink:href="#linear-gradient"/><linearGradient id="linear-gradient-131" x1="-22.01" y1="434.72" x2="101.26" y2="434.72" gradientTransform="matrix(0.98, 0.21, 0.21, -0.98, -46.39, 455.64)" xlink:href="#linear-gradient"/><linearGradient id="linear-gradient-132" x1="-22.01" y1="436.3" x2="101.26" y2="436.3" gradientTransform="matrix(0.98, 0.21, 0.21, -0.98, -46.39, 455.64)" xlink:href="#linear-gradient"/><linearGradient id="linear-gradient-133" x1="-22.01" y1="438.31" x2="101.26" y2="438.31" gradientTransform="matrix(0.98, 0.21, 0.21, -0.98, -46.39, 455.64)" xlink:href="#linear-gradient"/><linearGradient id="linear-gradient-134" x1="-22.01" y1="440.12" x2="101.26" y2="440.12" gradientTransform="matrix(0.98, 0.21, 0.21, -0.98, -46.39, 455.64)" xlink:href="#linear-gradient"/><linearGradient id="linear-gradient-135" x1="-22.01" y1="443.06" x2="101.26" y2="443.06" gradientTransform="matrix(0.98, 0.21, 0.21, -0.98, -46.39, 455.64)" xlink:href="#linear-gradient"/><linearGradient id="linear-gradient-136" x1="-22.01" y1="444.77" x2="101.26" y2="444.77" gradientTransform="matrix(0.98, 0.21, 0.21, -0.98, -46.39, 455.64)" xlink:href="#linear-gradient"/><linearGradient id="linear-gradient-137" x1="-22.01" y1="446.28" x2="101.26" y2="446.28" gradientTransform="matrix(0.98, 0.21, 0.21, -0.98, -46.39, 455.64)" xlink:href="#linear-gradient"/><linearGradient id="linear-gradient-138" x1="-22.01" y1="447.45" x2="101.26" y2="447.45" gradientTransform="matrix(0.98, 0.21, 0.21, -0.98, -46.39, 455.64)" xlink:href="#linear-gradient"/><linearGradient id="linear-gradient-139" x1="-22.01" y1="448.76" x2="101.26" y2="448.76" gradientTransform="matrix(0.98, 0.21, 0.21, -0.98, -46.39, 455.64)" xlink:href="#linear-gradient"/><linearGradient id="linear-gradient-140" x1="-22.01" y1="449.6" x2="101.26" y2="449.6" gradientTransform="matrix(0.98, 0.21, 0.21, -0.98, -46.39, 455.64)" xlink:href="#linear-gradient"/><linearGradient id="linear-gradient-141" x1="-22.01" y1="450.88" x2="101.26" y2="450.88" gradientTransform="matrix(0.98, 0.21, 0.21, -0.98, -46.39, 455.64)" xlink:href="#linear-gradient"/><linearGradient id="linear-gradient-142" x1="-22.01" y1="452.93" x2="101.26" y2="452.93" gradientTransform="matrix(0.98, 0.21, 0.21, -0.98, -46.39, 455.64)" xlink:href="#linear-gradient"/><linearGradient id="linear-gradient-143" x1="-22.01" y1="454.04" x2="101.26" y2="454.04" gradientTransform="matrix(0.98, 0.21, 0.21, -0.98, -46.39, 455.64)" xlink:href="#linear-gradient"/><linearGradient id="linear-gradient-144" x1="-22.01" y1="454.78" x2="101.26" y2="454.78" gradientTransform="matrix(0.98, 0.21, 0.21, -0.98, -46.39, 455.64)" xlink:href="#linear-gradient"/><linearGradient id="linear-gradient-145" x1="-22.01" y1="455.6" x2="101.26" y2="455.6" gradientTransform="matrix(0.98, 0.21, 0.21, -0.98, -46.39, 455.64)" xlink:href="#linear-gradient"/><linearGradient id="linear-gradient-146" x1="-22.01" y1="456.35" x2="101.26" y2="456.35" gradientTransform="matrix(0.98, 0.21, 0.21, -0.98, -46.39, 455.64)" xlink:href="#linear-gradient"/><linearGradient id="linear-gradient-147" x1="-22.01" y1="456.88" x2="101.26" y2="456.88" gradientTransform="matrix(0.98, 0.21, 0.21, -0.98, -46.39, 455.64)" xlink:href="#linear-gradient"/><linearGradient id="linear-gradient-148" x1="-22.01" y1="457.42" x2="101.26" y2="457.42" gradientTransform="matrix(0.98, 0.21, 0.21, -0.98, -46.39, 455.64)" xlink:href="#linear-gradient"/><linearGradient id="linear-gradient-149" x1="-22.01" y1="457.71" x2="101.26" y2="457.71" gradientTransform="matrix(0.98, 0.21, 0.21, -0.98, -46.39, 455.64)" xlink:href="#linear-gradient"/><linearGradient id="linear-gradient-150" x1="-22.01" y1="456.82" x2="101.26" y2="456.82" gradientTransform="matrix(0.98, 0.21, 0.21, -0.98, -46.39, 455.64)" xlink:href="#linear-gradient"/></defs><title>Logo</title><circle cx="74.67" cy="73.67" r="69.25" style="fill:#231f20"/><path d="M75.09,2.49A72.5,72.5,0,0,1,85.27,146.76a75.3,75.3,0,0,1-10.39.75A72.5,72.5,0,0,1,64.73,3.24a74.87,74.87,0,0,1,10.36-.75m0-1.16a75.33,75.33,0,0,0-10.54.74,73.67,73.67,0,0,0,10.36,146.6,75.33,75.33,0,0,0,10.54-.74A73.67,73.67,0,0,0,75.09,1.33Z" transform="translate(-1.33 -1.33)" style="fill:url(#linear-gradient)"/><path d="M75,2.52A72.53,72.53,0,1,0,147.52,75,72.51,72.51,0,0,0,75,2.52Zm0,140A67.5,67.5,0,1,1,142.49,75,67.49,67.49,0,0,1,75,142.54Z" transform="translate(-1.33 -1.33)" style="fill:url(#linear-gradient-2)"/><path d="M75,8.72a66.29,66.29,0,1,1-61.11,92.14A66.24,66.24,0,0,1,28.11,28.15,66.86,66.86,0,0,1,49.19,13.93,65.66,65.66,0,0,1,75,8.72m0-1.2A67.5,67.5,0,1,0,142.49,75,67.49,67.49,0,0,0,75,7.52Z" transform="translate(-1.33 -1.33)" style="fill:url(#linear-gradient-3)"/><path d="M129.26,75.8c0-.25,0-.5,0-.76q0-.92,0-1.83a.91.91,0,0,0,.62-.91c-.07-1.46-.2-2.94-.39-4.38a.91.91,0,0,0-.77-.78c-.12-.86-.27-1.71-.43-2.56a.9.9,0,0,0,.46-1c-.3-1.43-.67-2.86-1.08-4.26a.92.92,0,0,0-.88-.65q-.39-1.24-.84-2.46a.91.91,0,0,0,.29-1c-.53-1.36-1.12-2.72-1.75-4a.91.91,0,0,0-1-.5c-.4-.77-.81-1.54-1.23-2.3a.92.92,0,0,0,.12-1.07c-.74-1.26-1.54-2.5-2.38-3.7a.92.92,0,0,0-1-.34c-.51-.7-1-1.38-1.58-2.06a.92.92,0,0,0,0-1.1c-.93-1.12-1.92-2.22-2.93-3.27a.91.91,0,0,0-1.09-.16c-.62-.62-1.24-1.22-1.88-1.8a.91.91,0,0,0-.22-1.07c-1.1-1-2.24-1.9-3.41-2.77a.91.91,0,0,0-1.1,0c-.7-.51-1.42-1-2.14-1.48a.92.92,0,0,0-.39-1c-1.24-.78-2.52-1.51-3.82-2.19a.91.91,0,0,0-1.07.18c-.77-.4-1.56-.77-2.36-1.12a.9.9,0,0,0-.54-.94c-1.35-.57-2.74-1.09-4.12-1.55a.91.91,0,0,0-1,.35c-.83-.26-1.67-.49-2.51-.71a.89.89,0,0,0-.69-.85c-1.41-.35-2.86-.64-4.31-.87a.92.92,0,0,0-1,.52c-.86-.12-1.72-.23-2.58-.31a.9.9,0,0,0-.82-.73,55.76,55.76,0,0,0-6.59-.13.91.91,0,0,0-.84.7c-.87.05-1.73.12-2.59.2a.91.91,0,0,0-1-.55c-1.45.17-2.91.4-4.34.69a.91.91,0,0,0-.72.82c-.85.19-1.69.39-2.53.62a.91.91,0,0,0-1-.4c-1.4.41-2.8.87-4.17,1.39a.89.89,0,0,0-.58.91q-1.22.48-2.4,1a.91.91,0,0,0-1.07-.22c-1.31.62-2.63,1.3-3.89,2a.91.91,0,0,0-.43,1c-.75.44-1.48.91-2.2,1.39A.92.92,0,0,0,44,29.71Q42.17,31,40.45,32.34a.92.92,0,0,0-.26,1.06c-.66.56-1.31,1.13-1.95,1.72a.89.89,0,0,0-1.09.12c-1.06,1-2.09,2.06-3.06,3.15A.91.91,0,0,0,34,39.48c-.57.66-1.12,1.33-1.66,2a.89.89,0,0,0-1.05.29c-.89,1.16-1.74,2.37-2.53,3.6a.93.93,0,0,0,.08,1.09c-.46.74-.9,1.48-1.32,2.24a.93.93,0,0,0-1,.46c-.68,1.29-1.33,2.62-1.91,4a.91.91,0,0,0,.25,1.06c-.34.8-.65,1.61-.95,2.43a.92.92,0,0,0-.9.61c-.47,1.38-.89,2.8-1.25,4.22a.9.9,0,0,0,.42,1c-.2.85-.38,1.69-.53,2.55a.9.9,0,0,0-.8.75c-.25,1.43-.44,2.9-.57,4.35a.9.9,0,0,0,.58.93c-.06.86-.1,1.73-.12,2.6a.92.92,0,0,0-.68.86V75c0,1.28.05,2.58.13,3.85a.93.93,0,0,0,.73.83c.07.86.17,1.72.28,2.57a.93.93,0,0,0-.53,1c.22,1.44.5,2.89.83,4.31a.89.89,0,0,0,.83.7c.21.85.44,1.68.69,2.51a.91.91,0,0,0-.35,1c.44,1.39.95,2.78,1.51,4.13a.9.9,0,0,0,.84.56h.09c.34.79.71,1.58,1.09,2.36A.9.9,0,0,0,26,99.93c.66,1.3,1.39,2.59,2.15,3.83a.91.91,0,0,0,.78.44.85.85,0,0,0,.23,0c.47.73.95,1.45,1.45,2.15a.9.9,0,0,0,0,1.09c.86,1.18,1.78,2.34,2.73,3.45a.91.91,0,0,0,.69.31,1.09,1.09,0,0,0,.39-.08q.85,1,1.77,1.89a.9.9,0,0,0,.15,1.09c1,1,2.13,2,3.24,3a.93.93,0,0,0,.59.21.89.89,0,0,0,.5-.15c.68.55,1.36,1.08,2.06,1.6a.92.92,0,0,0,.32,1c1.19.85,2.43,1.66,3.68,2.41a.88.88,0,0,0,.47.13.89.89,0,0,0,.61-.24c.75.44,1.52.86,2.29,1.26a.91.91,0,0,0,.49,1c1.3.65,2.66,1.25,4,1.79a.83.83,0,0,0,.34.07.9.9,0,0,0,.71-.35q1.22.47,2.46.87a.91.91,0,0,0,.64.88c1.39.43,2.82.81,4.25,1.13l.2,0a.88.88,0,0,0,.79-.48c.85.18,1.7.33,2.56.46a.91.91,0,0,0,.77.78c1.45.2,2.92.35,4.38.44h.05a.92.92,0,0,0,.86-.62c.79,0,1.58.06,2.38.06h.21a.91.91,0,0,0,.87.65h0c1.46,0,2.94-.11,4.39-.26a.9.9,0,0,0,.8-.75c.86-.09,1.72-.21,2.57-.35a.91.91,0,0,0,.82.51l.16,0c1.44-.26,2.88-.58,4.29-1a.92.92,0,0,0,.67-.86c.84-.23,1.67-.49,2.49-.77a.91.91,0,0,0,.74.38.79.79,0,0,0,.3,0c1.38-.49,2.75-1,4.08-1.63a.91.91,0,0,0,.53-.95c.78-.37,1.56-.75,2.33-1.16a.91.91,0,0,0,.64.27.82.82,0,0,0,.43-.12c1.28-.7,2.55-1.46,3.77-2.26a.92.92,0,0,0,.37-1c.71-.48,1.42-1,2.11-1.51a1,1,0,0,0,.54.18.94.94,0,0,0,.56-.2c1.15-.89,2.28-1.84,3.36-2.83a.92.92,0,0,0,.19-1.08l1.14-1.1.71-.73a.87.87,0,0,0,.41.11.92.92,0,0,0,.67-.29c1-1.07,2-2.19,2.87-3.33a.92.92,0,0,0,0-1.1c.53-.69,1-1.38,1.54-2.09a.86.86,0,0,0,.28,0,.9.9,0,0,0,.75-.4c.82-1.22,1.59-2.48,2.31-3.75a.91.91,0,0,0-.15-1.08c.42-.76.81-1.54,1.19-2.32h.12a.89.89,0,0,0,.83-.53c.61-1.33,1.18-2.69,1.68-4.07a.9.9,0,0,0-.32-1c.29-.82.55-1.64.79-2.48a.9.9,0,0,0,.87-.66c.39-1.41.72-2.85,1-4.29a.91.91,0,0,0-.49-1c.15-.85.28-1.7.39-2.56a.91.91,0,0,0,.75-.8c.16-1.45.26-2.92.3-4.39A.9.9,0,0,0,129.26,75.8Zm-17.39,38.33a.91.91,0,0,0-1.05.12c-1,1-2.14,1.88-3.25,2.74a.92.92,0,0,0-.3,1c-.69.51-1.38,1-2.1,1.5a.9.9,0,0,0-1.06,0c-1.18.77-2.4,1.51-3.64,2.19a.92.92,0,0,0-.46,1c-.75.4-1.52.78-2.3,1.15a.92.92,0,0,0-1-.23c-1.28.58-2.61,1.11-3.94,1.58a.93.93,0,0,0-.6.89c-.81.27-1.63.53-2.46.76a.9.9,0,0,0-1-.39c-1.36.36-2.76.67-4.14.92a.89.89,0,0,0-.74.79c-.84.14-1.69.25-2.55.35a.91.91,0,0,0-.92-.55c-1.4.14-2.83.22-4.25.25a.91.91,0,0,0-.85.66H75c-.79,0-1.58,0-2.36-.06a.9.9,0,0,0-.83-.69c-1.41-.09-2.83-.23-4.22-.42a.89.89,0,0,0-1,.52c-.85-.14-1.69-.29-2.53-.46a.91.91,0,0,0-.71-.82c-1.37-.31-2.76-.67-4.1-1.09a.93.93,0,0,0-1,.35c-.82-.27-1.62-.55-2.43-.86a.91.91,0,0,0-.56-.91c-1.31-.52-2.62-1.11-3.88-1.74a.91.91,0,0,0-1.06.19c-.76-.4-1.52-.81-2.26-1.25a.91.91,0,0,0-.41-1c-1.21-.73-2.41-1.51-3.56-2.33a.9.9,0,0,0-1.06,0c-.69-.51-1.37-1-2-1.58a.9.9,0,0,0-.25-1c-1.08-.91-2.14-1.88-3.14-2.87a.9.9,0,0,0-1.05-.17c-.6-.61-1.19-1.24-1.76-1.88a.9.9,0,0,0-.09-1.06c-.92-1.07-1.81-2.19-2.64-3.33a.91.91,0,0,0-1-.33c-.5-.7-1-1.41-1.44-2.14a.9.9,0,0,0,.08-1.06c-.74-1.2-1.44-2.45-2.07-3.7a.91.91,0,0,0-1-.49c-.38-.77-.73-1.55-1.07-2.33a.91.91,0,0,0,.25-1c-.54-1.31-1-2.65-1.46-4a.89.89,0,0,0-.87-.62c-.25-.82-.47-1.65-.68-2.48a.9.9,0,0,0,.42-1c-.32-1.37-.59-2.78-.8-4.17a.91.91,0,0,0-.76-.77c-.12-.84-.21-1.69-.28-2.55a.91.91,0,0,0,.58-.91c-.08-1.23-.13-2.48-.13-3.72,0-.17,0-.35,0-.53a.91.91,0,0,0-.64-.87c0-.86.06-1.71.12-2.56a.91.91,0,0,0,.73-.81c.12-1.41.31-2.83.54-4.22a.91.91,0,0,0-.48-1c.15-.84.33-1.68.53-2.51a.93.93,0,0,0,.84-.68c.34-1.37.75-2.74,1.21-4.08a.91.91,0,0,0-.32-1q.43-1.21.93-2.4h.09a.93.93,0,0,0,.84-.55c.56-1.29,1.19-2.58,1.85-3.83A.9.9,0,0,0,28,49c.41-.76.85-1.5,1.3-2.23a.92.92,0,0,0,1-.38c.76-1.19,1.58-2.36,2.44-3.49a.9.9,0,0,0,0-1.06c.53-.68,1.08-1.34,1.65-2a.86.86,0,0,0,.36.08.91.91,0,0,0,.68-.3c.94-1,1.94-2.08,3-3a.91.91,0,0,0,.19-1c.64-.59,1.28-1.16,1.94-1.71A1,1,0,0,0,41,34a.89.89,0,0,0,.57-.21c1.1-.88,2.24-1.74,3.41-2.54a.91.91,0,0,0,.36-1c.71-.47,1.44-.93,2.17-1.37a.93.93,0,0,0,.61.23,1,1,0,0,0,.46-.12c1.22-.7,2.49-1.36,3.76-2a.91.91,0,0,0,.51-.94c.78-.36,1.57-.69,2.36-1a.93.93,0,0,0,.72.35.87.87,0,0,0,.32-.06c1.32-.5,2.68-.94,4-1.33a.92.92,0,0,0,.65-.86c.83-.22,1.66-.42,2.5-.61a.9.9,0,0,0,.79.48l.18,0c1.39-.28,2.8-.51,4.2-.67a.89.89,0,0,0,.78-.75c.85-.09,1.71-.15,2.56-.2a.92.92,0,0,0,.9.61,54.23,54.23,0,0,1,6.37.13h.07a.9.9,0,0,0,.84-.58c.86.08,1.71.19,2.55.31a.91.91,0,0,0,.76.77c1.39.22,2.79.51,4.16.84a.83.83,0,0,0,.22,0,.91.91,0,0,0,.78-.45c.83.22,1.65.46,2.47.71a.89.89,0,0,0,.62.88c1.33.45,2.67.95,4,1.5a.85.85,0,0,0,.35.08.92.92,0,0,0,.69-.32c.79.35,1.56.72,2.33,1.1a.9.9,0,0,0,.47,1c1.25.65,2.49,1.36,3.69,2.12a1,1,0,0,0,.48.14.94.94,0,0,0,.58-.21c.72.47,1.43,1,2.13,1.46a.9.9,0,0,0,.31,1c1.14.85,2.25,1.75,3.31,2.68a.91.91,0,0,0,.6.22.93.93,0,0,0,.46-.12c.63.57,1.26,1.17,1.87,1.78a.9.9,0,0,0,.15,1c1,1,1.93,2.08,2.83,3.16a.91.91,0,0,0,.71.34.88.88,0,0,0,.32-.07c.54.67,1.06,1.36,1.57,2a.92.92,0,0,0,0,1.07c.81,1.15,1.58,2.36,2.29,3.57a.92.92,0,0,0,.79.45l.19,0c.43.74.83,1.5,1.22,2.27a.89.89,0,0,0-.19,1c.61,1.26,1.18,2.57,1.69,3.89a.92.92,0,0,0,.85.58h.06c.3.8.57,1.61.83,2.43a.9.9,0,0,0-.36,1c.4,1.35.76,2.74,1,4.12a.89.89,0,0,0,.81.71c.16.84.31,1.68.43,2.53a.93.93,0,0,0-.53,1c.18,1.39.31,2.82.38,4.23a.9.9,0,0,0,.69.83c0,.61,0,1.22,0,1.82,0,.26,0,.5,0,.75a.91.91,0,0,0-.67.85c0,1.41-.14,2.84-.29,4.24a.89.89,0,0,0,.55.93c-.11.86-.24,1.7-.39,2.54a.9.9,0,0,0-.79.73c-.27,1.39-.59,2.78-1,4.14a.9.9,0,0,0,.39,1c-.25.83-.51,1.65-.79,2.45a.92.92,0,0,0-.89.6c-.49,1.32-1,2.65-1.62,3.93a.91.91,0,0,0,.21,1c-.37.77-.76,1.54-1.17,2.29a.92.92,0,0,0-1,.45c-.69,1.23-1.44,2.45-2.23,3.62a.92.92,0,0,0,0,1.06c-.49.71-1,1.4-1.53,2.09a.91.91,0,0,0-1,.28c-.88,1.11-1.81,2.19-2.77,3.22a.89.89,0,0,0-.13,1.06C113.11,112.94,112.5,113.54,111.87,114.13Z" transform="translate(-1.33 -1.33)" style="fill:url(#linear-gradient-4)"/><path d="M67.39,45.4l5.54,4.1V40.91h5.33V31.39h0a42.1,42.1,0,0,1,23.15,9L94,48.31,79.88,44.56l-.63,3,15.48,4L106,40.22l-.84-.78A46.77,46.77,0,0,0,78.56,28.3c-.57-.06-1.16-.09-1.76-.12l-1.62-.09V37.8H69.85v5.6l-2.28-1.71L53.68,48.37,46.2,41.48a47.08,47.08,0,0,1,16.61-8.65,3.66,3.66,0,0,0,2.85,1.37,3.62,3.62,0,1,0,0-7.24,3.66,3.66,0,0,0-3.57,2.87,47.59,47.59,0,0,0-18.56,10l-1.68,1.38L53.08,52.29Z" transform="translate(-1.33 -1.33)" style="fill:url(#linear-gradient-5)"/><path d="M78.53,102.68l1.56,3,10.09-7.13,11.68,11.68c-6.86,5.51-14.46,8.14-23.21,8.86v-9.16H72.13v-5.42L58.2,94,42.39,109.36l1.14,1.08a42.36,42.36,0,0,0,21.41,10.87,3.65,3.65,0,1,0,.66-3,39.35,39.35,0,0,1-18.78-9l11.8-10.84,10.45,8.23v6.38H75.6v9.34l1.62-.06a48.56,48.56,0,0,0,29.13-11.88l-16-16.32Z" transform="translate(-1.33 -1.33)" style="fill:url(#linear-gradient-6)"/><path d="M54.43,82,45,78.55l-.87,2.93,7.13,2.61.06,6.7L39.88,102.11A44.21,44.21,0,0,1,30.77,79L40.15,79V74h8.5l.42-14.44L51,55.34,39.46,43.81a47.84,47.84,0,0,0-10.24,18.9,3.62,3.62,0,1,0,4.31,3.56,3.54,3.54,0,0,0-1.35-2.81,47,47,0,0,1,7.46-15.21L47.3,56,46,58.94l-.36,11.94H37v5L27.48,76l.09,1.62A46.58,46.58,0,0,0,38.29,105.2l1.5,1.73L54.52,91.78Z" transform="translate(-1.33 -1.33)" style="fill:url(#linear-gradient-7)"/><path d="M92.34,77.41,90.51,60.46l-4-1.82.09-2.58L75.93,53,73.8,56.15l-2.12-3.41L61.47,56.06l.09,2.49-4.35,1.94-1.64,17,6.26,1.89,0,5.15L67.3,79l-.14-11.83H62l-.44-3,9-2V78.91h6.08v-17L86.23,64l-.54,2.84-5.57-.45h-.06V78.91l6,5.54-.06-5ZM75.72,87.29H71.8l-2.67-5.15-6.44,6.59L74,97.2,85.3,88.88,78.59,82Z" transform="translate(-1.33 -1.33)" style="fill:url(#linear-gradient-8)"/><path d="M93.59,82,103,78.55l.86,2.93-7.12,2.61-.06,6.7,11.44,11.32A44.2,44.2,0,0,0,117.25,79L107.88,79V74H99.37l-.15-14.44-2.63-5.24,11.59-11.49a52.75,52.75,0,0,1,10.6,19.91,3.62,3.62,0,1,1-4.32,3.56,3.54,3.54,0,0,1,1.35-2.81A53.48,53.48,0,0,0,108,47.29l-7.73,7.78,2,3.93.06,12H111v4.94l9.55.06-.09,1.62A46.58,46.58,0,0,1,109.7,105.2l-1.49,1.73L93.5,91.78Z" transform="translate(-1.33 -1.33)" style="fill:url(#linear-gradient-9)"/><path d="M67.39,45.4l5.54,4.1V40.91h5.33V31.39h0a42.1,42.1,0,0,1,23.15,9L94,48.31,79.88,44.56l-.63,3,15.48,4L106,40.22l-.84-.78A46.77,46.77,0,0,0,78.56,28.3c-.57-.06-1.16-.09-1.76-.12l-1.62-.09V37.8H69.85v5.6l-2.28-1.71L53.68,48.37,46.2,41.48a47.08,47.08,0,0,1,16.61-8.65,3.66,3.66,0,0,0,2.85,1.37,3.62,3.62,0,1,0,0-7.24,3.66,3.66,0,0,0-3.57,2.87,47.59,47.59,0,0,0-18.56,10l-1.68,1.38L53.08,52.29Z" transform="translate(-1.33 -1.33)" style="fill:url(#linear-gradient-10)"/><path d="M78.53,102.68l1.56,3,10.09-7.13,11.68,11.68c-6.86,5.51-14.46,8.14-23.21,8.86v-9.16H72.13v-5.42L58.2,94,42.39,109.36l1.14,1.08a42.36,42.36,0,0,0,21.41,10.87,3.65,3.65,0,1,0,.66-3,39.35,39.35,0,0,1-18.78-9l11.8-10.84,10.45,8.23v6.38H75.6v9.34l1.62-.06a48.56,48.56,0,0,0,29.13-11.88l-16-16.32Z" transform="translate(-1.33 -1.33)" style="fill:url(#linear-gradient-11)"/><path d="M54.43,82,45,78.55l-.87,2.93,7.13,2.61.06,6.7L39.88,102.11A44.21,44.21,0,0,1,30.77,79L40.15,79V74h8.5l.42-14.44L51,55.34,39.46,43.81a47.84,47.84,0,0,0-10.24,18.9,3.62,3.62,0,1,0,4.31,3.56,3.54,3.54,0,0,0-1.35-2.81,47,47,0,0,1,7.46-15.21L47.3,56,46,58.94l-.36,11.94H37v5L27.48,76l.09,1.62A46.58,46.58,0,0,0,38.29,105.2l1.5,1.73L54.52,91.78Z" transform="translate(-1.33 -1.33)" style="fill:url(#linear-gradient-12)"/><path d="M92.34,77.41,90.51,60.46l-4-1.82.09-2.58L75.93,53,73.8,56.15l-2.12-3.41L61.47,56.06l.09,2.49-4.35,1.94-1.64,17,6.26,1.89,0,5.15L67.3,79l-.14-11.83H62l-.44-3,9-2V78.91h6.08v-17L86.23,64l-.54,2.84-5.57-.45h-.06V78.91l6,5.54-.06-5ZM75.72,87.29H71.8l-2.67-5.15-6.44,6.59L74,97.2,85.3,88.88,78.59,82Z" transform="translate(-1.33 -1.33)" style="fill:url(#linear-gradient-13)"/><path d="M93.59,82,103,78.55l.86,2.93-7.12,2.61-.06,6.7,11.44,11.32A44.2,44.2,0,0,0,117.25,79L107.88,79V74H99.37l-.15-14.44-2.63-5.24,11.59-11.49a52.75,52.75,0,0,1,10.6,19.91,3.62,3.62,0,1,1-4.32,3.56,3.54,3.54,0,0,1,1.35-2.81A53.48,53.48,0,0,0,108,47.29l-7.73,7.78,2,3.93.06,12H111v4.94l9.55.06-.09,1.62A46.58,46.58,0,0,1,109.7,105.2l-1.49,1.73L93.5,91.78Z" transform="translate(-1.33 -1.33)" style="fill:url(#linear-gradient-14)"/><path d="M88.44,14.86a4,4,0,0,1,.72.12,1.17,1.17,0,0,1,.75.39.63.63,0,0,1,.09.57.73.73,0,0,1-.63.54h0a.66.66,0,0,1,.24.6,5,5,0,0,0,0,.77l-.48-.12a3,3,0,0,1,0-.65c0-.36-.09-.51-.36-.57l-.24-.06-.24,1.08-.47-.12Zm.21,1.26.27.06c.33.06.57-.06.63-.3s-.09-.48-.42-.54a2.51,2.51,0,0,0-.3-.06Z" transform="translate(-1.33 -1.33)" style="fill:url(#linear-gradient-15)"/><path d="M91.14,17.47l-.42.65L90.24,18l1.56-2.33.6.18.12,2.81L92,18.48l0-.81Zm.84-.15,0-.69v-.51h0l-.27.45-.39.57Z" transform="translate(-1.33 -1.33)" style="fill:url(#linear-gradient-16)"/><path d="M95.21,19.38a3.69,3.69,0,0,1-.87-.12,1.45,1.45,0,0,1-.87-.66,1.27,1.27,0,0,1,0-1.05,1.35,1.35,0,0,1,1.86-.83,1.65,1.65,0,0,1,.63.36l-.24.33a1.28,1.28,0,0,0-.54-.3.9.9,0,0,0-1.23.59.92.92,0,0,0,.57,1.23c.18.06.3.09.36.06l.21-.63-.45-.15.12-.36.9.3Z" transform="translate(-1.33 -1.33)" style="fill:url(#linear-gradient-17)"/><path d="M96.17,19.32a1.26,1.26,0,0,0,.54.39c.3.12.51,0,.6-.15s0-.36-.27-.6-.54-.63-.39-1a.84.84,0,0,1,1.17-.39,1.38,1.38,0,0,1,.54.36l-.24.33a1,1,0,0,0-.45-.3c-.3-.12-.48,0-.54.15s0,.33.33.6.51.63.36,1-.6.63-1.23.39a1.45,1.45,0,0,1-.63-.42Z" transform="translate(-1.33 -1.33)" style="fill:url(#linear-gradient-18)"/><path d="M99.4,20.91a.29.29,0,0,1,.42-.15.32.32,0,0,1,.15.42.3.3,0,0,1-.42.15A.28.28,0,0,1,99.4,20.91Z" transform="translate(-1.33 -1.33)" style="fill:url(#linear-gradient-19)"/><path d="M102.85,19.92a6.25,6.25,0,0,1,.72.3,1.81,1.81,0,0,1,.83.78,1.28,1.28,0,0,1-.09,1.08,1.35,1.35,0,0,1-.86.74,1.9,1.9,0,0,1-1.26-.23,4.16,4.16,0,0,1-.57-.33Zm-.6,2.25.24.15a.92.92,0,0,0,1.37-.45.86.86,0,0,0-.41-1.26,1.47,1.47,0,0,0-.3-.12Z" transform="translate(-1.33 -1.33)" style="fill:url(#linear-gradient-20)"/><path d="M106.23,23.45l-.87-.51-.39.69,1,.57-.21.36-1.41-.81,1.35-2.3,1.35.78-.21.36-.93-.54-.36.6.87.5Z" transform="translate(-1.33 -1.33)" style="fill:url(#linear-gradient-21)"/><path d="M108.09,25.94a1.49,1.49,0,0,1-.66-.27,1.27,1.27,0,0,1-.42-1.89,1.34,1.34,0,0,1,2-.42,1.76,1.76,0,0,1,.48.45l-.3.27a1.66,1.66,0,0,0-.38-.36.89.89,0,0,0-1.32.33.87.87,0,0,0,.27,1.32,1.42,1.42,0,0,0,.51.21Z" transform="translate(-1.33 -1.33)" style="fill:url(#linear-gradient-22)"/><path d="M110.6,26.33l-.84-.57-.45.63.93.66-.24.33-1.31-.93,1.55-2.19,1.29.9-.24.33-.87-.63-.39.57.84.57Z" transform="translate(-1.33 -1.33)" style="fill:url(#linear-gradient-23)"/><path d="M110.66,27.86l1.65-2.13.45.33-.15,1.32a8.2,8.2,0,0,1-.18,1h0c.21-.3.39-.56.66-.89l.57-.75L114,27l-1.65,2.12-.39-.3.18-1.34c.06-.33.12-.72.18-1h0c-.21.3-.42.57-.69.93l-.6.74Z" transform="translate(-1.33 -1.33)" style="fill:url(#linear-gradient-24)"/><path d="M114.91,28.36l-.57-.5.27-.3,1.53,1.31-.27.3-.6-.51-1.46,1.74-.36-.33Z" transform="translate(-1.33 -1.33)" style="fill:url(#linear-gradient-25)"/><path d="M116.71,29.44a3.44,3.44,0,0,1,.57.48,1.29,1.29,0,0,1,.45.72.58.58,0,0,1-.21.54.7.7,0,0,1-.81.15h0a.63.63,0,0,1-.09.63,3.87,3.87,0,0,0-.36.69l-.36-.36a2.64,2.64,0,0,1,.3-.57c.18-.3.18-.48,0-.66l-.18-.18-.75.81-.36-.33Zm-.45,1.17.21.21a.44.44,0,0,0,.69,0c.21-.21.15-.45-.09-.66s-.18-.18-.24-.18Z" transform="translate(-1.33 -1.33)" style="fill:url(#linear-gradient-26)"/><path d="M117.76,33l-.72.35-.36-.35,2.52-1.26.44.45-1.31,2.48-.36-.39.39-.69Zm.78.29.33-.59.27-.45h0l-.45.27-.63.3Z" transform="translate(-1.33 -1.33)" style="fill:url(#linear-gradient-27)"/><path d="M120.81,33.51l.33.36-1.71,1.5.72.81-.3.27-1-1.2Z" transform="translate(-1.33 -1.33)" style="fill:url(#linear-gradient-28)"/><path d="M122.73,35.7l-2.07,1.71-.3-.39,2.07-1.71Z" transform="translate(-1.33 -1.33)" style="fill:url(#linear-gradient-29)"/><path d="M121.38,37.86l2.43-.15h0l-.78-1,.33-.24,1.17,1.5-.24.18-2.4.15h0l.84,1.07-.33.24L121.14,38Z" transform="translate(-1.33 -1.33)" style="fill:url(#linear-gradient-30)"/><path d="M124.7,40.76l-.59-.81-.63.45.66.93-.33.24-.93-1.32,2.18-1.56L126,40l-.33.24-.63-.87-.56.39.59.81Z" transform="translate(-1.33 -1.33)" style="fill:url(#linear-gradient-31)"/><path d="M126.47,40.76a6.77,6.77,0,0,1,.48.63,1.71,1.71,0,0,1,.33,1.08,1.22,1.22,0,0,1-.6.9,1.36,1.36,0,0,1-1.11.24,1.74,1.74,0,0,1-1-.81,5.45,5.45,0,0,1-.32-.57Zm-1.65,1.65a2.77,2.77,0,0,0,.15.24.92.92,0,0,0,1.41.3.86.86,0,0,0,.27-1.32,2.91,2.91,0,0,0-.21-.27Z" transform="translate(-1.33 -1.33)" style="fill:url(#linear-gradient-32)"/><path d="M128.84,44.59c.12.18.27.39.42.66a1.48,1.48,0,0,1,.24,1.11,1.2,1.2,0,0,1-.66.84,1.33,1.33,0,0,1-1.14.15,1.74,1.74,0,0,1-.9-.9,3.67,3.67,0,0,1-.3-.6Zm-1.77,1.5a1.77,1.77,0,0,0,.12.24.9.9,0,0,0,1.38.39.86.86,0,0,0,.36-1.29.79.79,0,0,0-.18-.27Z" transform="translate(-1.33 -1.33)" style="fill:url(#linear-gradient-33)"/><path d="M130.57,47.83,128.18,49l-.21-.44,2.39-1.2Z" transform="translate(-1.33 -1.33)" style="fill:url(#linear-gradient-34)"/><path d="M129.59,51.75a2.12,2.12,0,0,1-.48-.72,1.64,1.64,0,0,1-.12-1.11,1.4,1.4,0,0,1,.75-.75,1.35,1.35,0,0,1,1.88.78,1.64,1.64,0,0,1,.18.69l-.39.06a1.34,1.34,0,0,0-.15-.6,1,1,0,0,0-1.79.78.64.64,0,0,0,.21.3l.59-.27-.21-.42.36-.15.39.87Z" transform="translate(-1.33 -1.33)" style="fill:url(#linear-gradient-35)"/><path d="M132.46,52.08l-2.49,1-.17-.45,2.48-1Z" transform="translate(-1.33 -1.33)" style="fill:url(#linear-gradient-36)"/><path d="M132.64,53.64l-.27-.72.39-.15.69,1.88-.39.15-.27-.71-2.13.77-.18-.45Z" transform="translate(-1.33 -1.33)" style="fill:url(#linear-gradient-37)"/><path d="M132,56.24h-.81l-.15-.48h2.82l.18.6L131.71,58l-.15-.51.66-.48Zm.6.63.57-.39a3.57,3.57,0,0,1,.45-.27h0l-.51,0h-.69Z" transform="translate(-1.33 -1.33)" style="fill:url(#linear-gradient-38)"/><path d="M134.53,58l.12.48-2.19.6.3,1-.39.12L132,58.76Z" transform="translate(-1.33 -1.33)" style="fill:url(#linear-gradient-39)"/><path d="M133.3,64a1.78,1.78,0,0,1-.27-.66,1.27,1.27,0,0,1,1.05-1.62,1.34,1.34,0,0,1,1.67,1.11,1.72,1.72,0,0,1,0,.66l-.39,0a1.62,1.62,0,0,0,0-.54.9.9,0,0,0-1.16-.72.88.88,0,0,0-.75,1.11,1.31,1.31,0,0,0,.21.51Z" transform="translate(-1.33 -1.33)" style="fill:url(#linear-gradient-40)"/><path d="M136.08,64.89l-1.55.24c-.51.09-.72.33-.66.66s.33.51.84.45l1.55-.24.09.48-1.52.24c-.81.12-1.26-.24-1.35-.87s.18-1.08,1-1.2l1.52-.23Z" transform="translate(-1.33 -1.33)" style="fill:url(#linear-gradient-41)"/><path d="M136.41,67.53c.06.18.09.45.15.72a1.35,1.35,0,0,1-.12.84.71.71,0,0,1-1.23-.12h0a.62.62,0,0,1-.47.42,3,3,0,0,0-.72.3l-.06-.51a2.12,2.12,0,0,1,.6-.24c.33-.12.45-.24.42-.54l0-.24-1.11.12-.06-.48Zm-1.11.6,0,.3c0,.33.24.51.51.48s.42-.24.36-.57a1.69,1.69,0,0,0-.06-.3Z" transform="translate(-1.33 -1.33)" style="fill:url(#linear-gradient-42)"/><path d="M136.71,70.25a4.27,4.27,0,0,1,.09.75,1.32,1.32,0,0,1-.15.84.78.78,0,0,1-.51.27.67.67,0,0,1-.69-.45h0a.69.69,0,0,1-.47.42,3.34,3.34,0,0,0-.72.27l0-.51c.09,0,.3-.12.63-.21s.44-.24.44-.51l0-.24-1.1.06,0-.48Zm-1.17.57,0,.3c0,.33.21.54.48.51s.42-.24.39-.54,0-.24,0-.3Z" transform="translate(-1.33 -1.33)" style="fill:url(#linear-gradient-43)"/><path d="M135.42,74.54l0-1-.77,0,0,1.14h-.39l0-1.62,2.66-.06,0,1.56h-.39l0-1.08h-.69l0,1Z" transform="translate(-1.33 -1.33)" style="fill:url(#linear-gradient-44)"/><path d="M134.23,75.46l2.66.06v.57l-1.17.66a5,5,0,0,1-.89.42h0a6.73,6.73,0,0,1,1.1,0l.93,0v.45l-2.66-.06v-.51l1.19-.66c.3-.15.63-.33.93-.45h-1.14l-1,0Z" transform="translate(-1.33 -1.33)" style="fill:url(#linear-gradient-45)"/><path d="M134.08,80.43a1.44,1.44,0,0,1-.06-.68,1.26,1.26,0,0,1,1.43-1.26A1.36,1.36,0,0,1,136.77,80a1.42,1.42,0,0,1-.18.62l-.39-.15a1.65,1.65,0,0,0,.15-.5.91.91,0,0,0-.9-1,.9.9,0,0,0-1,.87,1,1,0,0,0,.06.53Z" transform="translate(-1.33 -1.33)" style="fill:url(#linear-gradient-46)"/><path d="M133.84,81.84,135,82l1.64-.66-.06.54-.72.24a4,4,0,0,1-.57.15h0c.15.09.33.18.51.3l.63.39-.06.54-1.43-1.08-1.11-.15Z" transform="translate(-1.33 -1.33)" style="fill:url(#linear-gradient-47)"/><path d="M133.63,85.05a.31.31,0,0,1,.27.36.29.29,0,0,1-.36.23.31.31,0,0,1-.27-.35A.29.29,0,0,1,133.63,85.05Z" transform="translate(-1.33 -1.33)" style="fill:url(#linear-gradient-48)"/><path d="M135.45,88.13a4,4,0,0,1-.12.72,1.22,1.22,0,0,1-.38.75.63.63,0,0,1-.57.09.73.73,0,0,1-.54-.63h0a.66.66,0,0,1-.6.24,4.92,4.92,0,0,0-.78,0l.12-.48a3.14,3.14,0,0,1,.66,0c.36,0,.51-.09.57-.36l.06-.24L132.79,88l.12-.48Zm-1.25.21-.06.27a.47.47,0,0,0,.3.63c.3.06.48-.09.54-.42a2.51,2.51,0,0,0,.06-.3Z" transform="translate(-1.33 -1.33)" style="fill:url(#linear-gradient-49)"/><path d="M132.85,90.85l-.66-.41.15-.48,2.34,1.55-.18.6-2.82.12.15-.51.81,0Zm.15.84.69,0h.51l-.45-.27-.57-.39Z" transform="translate(-1.33 -1.33)" style="fill:url(#linear-gradient-50)"/><path d="M130.9,94.9A3.69,3.69,0,0,1,131,94a1.45,1.45,0,0,1,.66-.87,1.27,1.27,0,0,1,1,0,1.35,1.35,0,0,1,.84,1.86,1.65,1.65,0,0,1-.36.63l-.33-.24a1.28,1.28,0,0,0,.3-.54.9.9,0,0,0-.6-1.23.92.92,0,0,0-1.23.57c-.06.18-.09.3-.06.36l.63.21.15-.45.36.12-.3.9Z" transform="translate(-1.33 -1.33)" style="fill:url(#linear-gradient-51)"/><path d="M131,95.86a1.17,1.17,0,0,0-.39.53c-.12.3,0,.51.15.6s.36,0,.6-.27.63-.54,1-.39a.83.83,0,0,1,.39,1.17,1.38,1.38,0,0,1-.36.54L132,97.8a1,1,0,0,0,.3-.45c.12-.3,0-.48-.15-.54s-.33,0-.6.33-.63.51-1,.36-.63-.6-.39-1.23a1.41,1.41,0,0,1,.42-.62Z" transform="translate(-1.33 -1.33)" style="fill:url(#linear-gradient-52)"/><path d="M129.38,99.09a.28.28,0,0,1,.15.42.32.32,0,0,1-.42.15.3.3,0,0,1-.15-.42A.29.29,0,0,1,129.38,99.09Z" transform="translate(-1.33 -1.33)" style="fill:url(#linear-gradient-53)"/><path d="M130.39,102.56a6.25,6.25,0,0,1-.3.72,1.78,1.78,0,0,1-.77.84,1.28,1.28,0,0,1-1.08-.09,1.39,1.39,0,0,1-.75-.87,1.86,1.86,0,0,1,.24-1.26,4.16,4.16,0,0,1,.33-.57Zm-2.24-.63a2.77,2.77,0,0,1-.15.24.93.93,0,0,0,.45,1.38.85.85,0,0,0,1.26-.42,1.47,1.47,0,0,0,.12-.3Z" transform="translate(-1.33 -1.33)" style="fill:url(#linear-gradient-54)"/><path d="M126.86,106l.51-.87-.69-.39-.57,1-.36-.21.81-1.41,2.31,1.35-.78,1.34-.36-.21.54-.92-.6-.36-.51.87Z" transform="translate(-1.33 -1.33)" style="fill:url(#linear-gradient-55)"/><path d="M124.41,107.8a1.57,1.57,0,0,1,.26-.66,1.28,1.28,0,0,1,1.89-.42,1.35,1.35,0,0,1,.42,2,1.76,1.76,0,0,1-.45.48l-.27-.3a1.54,1.54,0,0,0,.36-.39.89.89,0,0,0-.33-1.32.87.87,0,0,0-1.32.27,1.42,1.42,0,0,0-.21.51Z" transform="translate(-1.33 -1.33)" style="fill:url(#linear-gradient-56)"/><path d="M124,110.32l.57-.84-.63-.45-.66.93-.33-.24.93-1.32,2.18,1.56-.9,1.29-.33-.24.63-.87-.57-.39-.56.84Z" transform="translate(-1.33 -1.33)" style="fill:url(#linear-gradient-57)"/><path d="M122.49,110.35l2.12,1.64-.32.45-1.32-.15a8.38,8.38,0,0,1-1-.18h0c.3.21.57.39.9.66l.75.57-.27.36-2.13-1.65.3-.39,1.35.18,1,.18h0l-.93-.68-.75-.6Z" transform="translate(-1.33 -1.33)" style="fill:url(#linear-gradient-58)"/><path d="M122,114.63l.51-.57.3.27-1.32,1.53-.3-.27.51-.6-1.74-1.47.33-.36Z" transform="translate(-1.33 -1.33)" style="fill:url(#linear-gradient-59)"/><path d="M120.9,116.43a3.44,3.44,0,0,1-.48.56,1.29,1.29,0,0,1-.72.45.56.56,0,0,1-.53-.21.69.69,0,0,1-.15-.8h0a.63.63,0,0,1-.63-.09,3.87,3.87,0,0,0-.69-.36l.36-.36a3.43,3.43,0,0,1,.6.3c.3.18.48.18.66,0l.17-.18-.8-.75.33-.36Zm-1.2-.48-.21.21a.44.44,0,0,0,0,.68c.21.21.45.15.66-.08s.18-.18.18-.24Z" transform="translate(-1.33 -1.33)" style="fill:url(#linear-gradient-60)"/><path d="M117.28,117.44l-.36-.71.36-.36,1.26,2.51-.45.45L115.6,118l.39-.36.72.39Zm-.3.81.6.33.45.27h0l-.27-.45-.3-.63Z" transform="translate(-1.33 -1.33)" style="fill:url(#linear-gradient-61)"/><path d="M116.83,120.53l-.36.33-1.5-1.71-.8.72-.27-.3,1.19-1Z" transform="translate(-1.33 -1.33)" style="fill:url(#linear-gradient-62)"/><path d="M114.61,122.44l-1.7-2.06.39-.3,1.7,2.06Z" transform="translate(-1.33 -1.33)" style="fill:url(#linear-gradient-63)"/><path d="M112.49,121.1l.15,2.42h0l1-.78.24.33-1.5,1.17-.18-.24-.15-2.39h0l-1.08.83-.24-.33,1.59-1.25Z" transform="translate(-1.33 -1.33)" style="fill:url(#linear-gradient-64)"/><path d="M109.58,124.42l.81-.6-.45-.63-.93.66-.23-.33,1.31-.93,1.56,2.19-1.26.9-.24-.33.87-.63-.39-.57-.81.6Z" transform="translate(-1.33 -1.33)" style="fill:url(#linear-gradient-65)"/><path d="M109.55,126.19c-.15.15-.39.3-.62.48a1.71,1.71,0,0,1-1.08.33,1.22,1.22,0,0,1-.9-.6,1.32,1.32,0,0,1-.24-1.11,1.74,1.74,0,0,1,.81-1,4.33,4.33,0,0,1,.57-.33Zm-1.64-1.65-.24.15a.92.92,0,0,0-.3,1.41.86.86,0,0,0,1.32.27,1.76,1.76,0,0,0,.26-.21Z" transform="translate(-1.33 -1.33)" style="fill:url(#linear-gradient-66)"/><path d="M105.75,128.55c-.18.12-.39.27-.66.42a1.48,1.48,0,0,1-1.11.24,1.2,1.2,0,0,1-.83-.66,1.33,1.33,0,0,1-.15-1.14,1.77,1.77,0,0,1,.89-.89,3.67,3.67,0,0,1,.6-.3Zm-1.53-1.76a1.77,1.77,0,0,0-.24.12.89.89,0,0,0-.38,1.37.85.85,0,0,0,1.28.36.79.79,0,0,0,.27-.18Z" transform="translate(-1.33 -1.33)" style="fill:url(#linear-gradient-67)"/><path d="M102.52,130.29l-1.2-2.4.45-.21,1.2,2.4Z" transform="translate(-1.33 -1.33)" style="fill:url(#linear-gradient-68)"/><path d="M98.56,129.3a2.12,2.12,0,0,1,.72-.48,1.64,1.64,0,0,1,1.11-.12,1.31,1.31,0,0,1,.75.75,1.35,1.35,0,0,1-.78,1.89,1.64,1.64,0,0,1-.69.18l-.06-.39a1.34,1.34,0,0,0,.6-.15,1,1,0,0,0-.78-1.8.64.64,0,0,0-.3.21l.27.6.42-.21.15.36-.87.39Z" transform="translate(-1.33 -1.33)" style="fill:url(#linear-gradient-69)"/><path d="M98.27,132.21l-1-2.49.45-.18,1,2.49Z" transform="translate(-1.33 -1.33)" style="fill:url(#linear-gradient-70)"/><path d="M96.71,132.36l.72-.27.15.38-1.89.69-.15-.39.72-.27-.78-2.12.45-.18Z" transform="translate(-1.33 -1.33)" style="fill:url(#linear-gradient-71)"/><path d="M94.07,131.7l0-.81.48-.15v2.81l-.6.18-1.64-2.27.51-.15.48.66Zm-.6.6.42.56a3.57,3.57,0,0,1,.27.45h0c0-.15,0-.36,0-.51v-.68Z" transform="translate(-1.33 -1.33)" style="fill:url(#linear-gradient-72)"/><path d="M92.31,134.27l-.48.12-.6-2.18-1,.29-.12-.38,1.53-.42Z" transform="translate(-1.33 -1.33)" style="fill:url(#linear-gradient-73)"/><path d="M86.29,133a1.78,1.78,0,0,1,.66-.27,1.26,1.26,0,0,1,1.61,1,1.35,1.35,0,0,1-1.1,1.68,1.72,1.72,0,0,1-.66,0l0-.39a1.62,1.62,0,0,0,.54,0,.91.91,0,0,0,.71-1.17.87.87,0,0,0-1.1-.75,1.14,1.14,0,0,0-.51.21Z" transform="translate(-1.33 -1.33)" style="fill:url(#linear-gradient-74)"/><path d="M85.45,135.83l-.24-1.56c-.09-.51-.33-.72-.66-.66s-.51.33-.45.84l.24,1.56-.48.09-.24-1.53c-.12-.81.24-1.26.87-1.35s1.08.18,1.2,1l.24,1.53Z" transform="translate(-1.33 -1.33)" style="fill:url(#linear-gradient-75)"/><path d="M82.82,136.16a3.76,3.76,0,0,1-.72.15,1.35,1.35,0,0,1-.84-.12.71.71,0,0,1,.12-1.23h0a.63.63,0,0,1-.42-.48,5.2,5.2,0,0,0-.3-.72l.51-.06a2.63,2.63,0,0,1,.24.6c.12.33.24.45.54.42l.24,0-.12-1.11.48-.06Zm-.6-1.11-.3,0c-.33,0-.51.24-.48.51s.24.42.57.36a1.69,1.69,0,0,0,.3-.06Z" transform="translate(-1.33 -1.33)" style="fill:url(#linear-gradient-76)"/><path d="M80.09,136.43a4.27,4.27,0,0,1-.75.09,1.32,1.32,0,0,1-.84-.15.78.78,0,0,1-.27-.51.67.67,0,0,1,.45-.69h0a.69.69,0,0,1-.42-.48A3.34,3.34,0,0,0,78,134l.51,0c0,.09.12.3.21.63s.24.45.51.45l.24,0-.06-1.11.48,0Zm-.57-1.14-.3,0c-.33,0-.54.21-.51.48s.24.42.54.39.24,0,.3,0Z" transform="translate(-1.33 -1.33)" style="fill:url(#linear-gradient-77)"/><path d="M75.81,135.17l1,0,0-.78-1.14,0V134l1.62,0,.06,2.67-1.56,0v-.39l1.08,0v-.69l-1,0Z" transform="translate(-1.33 -1.33)" style="fill:url(#linear-gradient-78)"/><path d="M74.88,134l-.06,2.7h-.57l-.66-1.17a4.78,4.78,0,0,1-.42-.9h0a6.85,6.85,0,0,1,0,1.11l0,.93h-.45l.06-2.7h.51l.66,1.2c.15.3.33.63.45.93h0v-1.14l0-1Z" transform="translate(-1.33 -1.33)" style="fill:url(#linear-gradient-79)"/><path d="M69.91,133.82a1.49,1.49,0,0,1,.69-.06,1.26,1.26,0,0,1,1.26,1.44,1.36,1.36,0,0,1-1.53,1.32,1.43,1.43,0,0,1-.63-.18l.15-.39a1.73,1.73,0,0,0,.51.15.92.92,0,0,0,1-.93.86.86,0,0,0-.87-1,1.41,1.41,0,0,0-.54.06Z" transform="translate(-1.33 -1.33)" style="fill:url(#linear-gradient-80)"/><path d="M68.5,133.58l-.12,1.11.66,1.65-.54-.06-.24-.72c-.06-.21-.12-.36-.18-.57h0c-.09.15-.18.33-.3.51l-.39.66-.53-.06,1.07-1.44.15-1.11Z" transform="translate(-1.33 -1.33)" style="fill:url(#linear-gradient-81)"/><path d="M65.3,133.4a.31.31,0,0,1-.36.27.29.29,0,0,1-.24-.36.31.31,0,0,1,.36-.27A.29.29,0,0,1,65.3,133.4Z" transform="translate(-1.33 -1.33)" style="fill:url(#linear-gradient-82)"/><path d="M62.21,135.2a3.88,3.88,0,0,1-.71-.12,1.17,1.17,0,0,1-.75-.39.63.63,0,0,1-.09-.57.73.73,0,0,1,.63-.54h0a.66.66,0,0,1-.24-.6,5,5,0,0,0,0-.77l.48.12a3,3,0,0,1,0,.65c0,.36.09.51.36.57l.23.06.24-1.08.48.12ZM62,133.94l-.26-.06c-.33-.06-.57.06-.63.3s.09.48.42.54c.15,0,.24.06.3,0Z" transform="translate(-1.33 -1.33)" style="fill:url(#linear-gradient-83)"/><path d="M59.49,132.59l.42-.65.48.15-1.56,2.33-.6-.18-.12-2.81.51.15,0,.81Zm-.84.15,0,.69v.51h0l.27-.45.39-.57Z" transform="translate(-1.33 -1.33)" style="fill:url(#linear-gradient-84)"/><path d="M55.45,130.68a3.69,3.69,0,0,1,.87.12,1.46,1.46,0,0,1,.86.66,1.25,1.25,0,0,1,0,1,1.56,1.56,0,0,1-2.48.48l.24-.33a1.28,1.28,0,0,0,.54.3.89.89,0,0,0,1.22-.59.92.92,0,0,0-.56-1.23,1.06,1.06,0,0,0-.36-.06l-.21.63.45.15-.12.36-.9-.3Z" transform="translate(-1.33 -1.33)" style="fill:url(#linear-gradient-85)"/><path d="M54.49,130.77a1.26,1.26,0,0,0-.54-.39c-.3-.12-.51,0-.6.18s0,.36.3.6.54.63.39,1a.84.84,0,0,1-1.17.38,1.05,1.05,0,0,1-.54-.35l.24-.33a1,1,0,0,0,.45.3c.3.12.48,0,.54-.15s0-.33-.33-.6-.51-.63-.36-1,.6-.63,1.23-.39a1.45,1.45,0,0,1,.63.42Z" transform="translate(-1.33 -1.33)" style="fill:url(#linear-gradient-86)"/><path d="M51.26,129.15a.29.29,0,0,1-.42.15.32.32,0,0,1-.15-.42.3.3,0,0,1,.42-.15A.34.34,0,0,1,51.26,129.15Z" transform="translate(-1.33 -1.33)" style="fill:url(#linear-gradient-87)"/><path d="M47.78,130.17a6.25,6.25,0,0,1-.72-.3,1.71,1.71,0,0,1-.83-.78,1.31,1.31,0,0,1,.08-1.08,1.39,1.39,0,0,1,.87-.75,1.91,1.91,0,0,1,1.26.24,4.16,4.16,0,0,1,.57.33Zm.6-2.25-.24-.15a.93.93,0,0,0-1.38.45.85.85,0,0,0,.42,1.26,1.47,1.47,0,0,0,.3.12Z" transform="translate(-1.33 -1.33)" style="fill:url(#linear-gradient-88)"/><path d="M44.4,126.64l.87.51.39-.69-1-.57.21-.36,1.4.81-1.34,2.3-1.35-.78.21-.36.93.54.36-.6-.87-.5Z" transform="translate(-1.33 -1.33)" style="fill:url(#linear-gradient-89)"/><path d="M42.54,124.15a1.49,1.49,0,0,1,.66.27,1.27,1.27,0,0,1,.42,1.89,1.35,1.35,0,0,1-2,.42,1.76,1.76,0,0,1-.48-.45l.3-.27a1.54,1.54,0,0,0,.39.36.89.89,0,0,0,1.32-.33.87.87,0,0,0-.27-1.32,1.42,1.42,0,0,0-.51-.21Z" transform="translate(-1.33 -1.33)" style="fill:url(#linear-gradient-90)"/><path d="M40,123.76l.84.57.44-.63-.92-.66.24-.33,1.31.93-1.55,2.19-1.29-.9.24-.33.87.63.39-.57-.84-.57Z" transform="translate(-1.33 -1.33)" style="fill:url(#linear-gradient-91)"/><path d="M40,122.23l-1.65,2.13-.45-.33.15-1.35a8.2,8.2,0,0,1,.18-1h0a7.51,7.51,0,0,1-.66.89l-.57.75-.36-.27L38.26,121l.39.3-.18,1.34c-.06.33-.12.72-.18,1h0c.21-.3.42-.57.69-.93l.6-.74Z" transform="translate(-1.33 -1.33)" style="fill:url(#linear-gradient-92)"/><path d="M35.72,121.76l.56.5-.27.3-1.52-1.31.27-.3.6.51,1.46-1.74.36.33Z" transform="translate(-1.33 -1.33)" style="fill:url(#linear-gradient-93)"/><path d="M33.92,120.68a5.2,5.2,0,0,1-.57-.45,1.29,1.29,0,0,1-.45-.72.58.58,0,0,1,.21-.54.7.7,0,0,1,.81-.15h0a.63.63,0,0,1,.09-.63,3.87,3.87,0,0,0,.36-.69l.36.36a3.43,3.43,0,0,1-.3.6c-.18.3-.18.48,0,.66l.18.18.75-.81.36.33Zm.45-1.2-.21-.21a.44.44,0,0,0-.69,0c-.21.21-.15.45.09.66s.18.18.24.18Z" transform="translate(-1.33 -1.33)" style="fill:url(#linear-gradient-94)"/><path d="M32.87,117.05l.72-.35.36.35-2.52,1.26-.45-.45,1.32-2.48.36.39-.39.72Zm-.81-.29-.33.59-.27.45h0l.45-.27.63-.3Z" transform="translate(-1.33 -1.33)" style="fill:url(#linear-gradient-95)"/><path d="M29.79,116.61l-.33-.36,1.7-1.5-.71-.81.29-.27,1.05,1.2Z" transform="translate(-1.33 -1.33)" style="fill:url(#linear-gradient-96)"/><path d="M27.87,114.42l2.07-1.71.3.39-2.07,1.71Z" transform="translate(-1.33 -1.33)" style="fill:url(#linear-gradient-97)"/><path d="M29.25,112.26l-2.43.15h0l.78,1-.33.24-1.17-1.5.24-.18,2.4-.15h0l-.84-1.07.33-.24,1.26,1.58Z" transform="translate(-1.33 -1.33)" style="fill:url(#linear-gradient-98)"/><path d="M25.89,109.36l.6.81.63-.45-.66-.93.33-.24.93,1.32-2.19,1.56-.89-1.26.33-.24.62.87.57-.39-.6-.81Z" transform="translate(-1.33 -1.33)" style="fill:url(#linear-gradient-99)"/><path d="M24.13,109.33a6.77,6.77,0,0,1-.48-.63,1.71,1.71,0,0,1-.33-1.08,1.22,1.22,0,0,1,.6-.9,1.32,1.32,0,0,1,1.11-.24,1.72,1.72,0,0,1,.95.81,4.33,4.33,0,0,1,.33.57Zm1.64-1.62a2.77,2.77,0,0,0-.15-.24.91.91,0,0,0-1.4-.3.86.86,0,0,0-.27,1.32,2.91,2.91,0,0,0,.21.27Z" transform="translate(-1.33 -1.33)" style="fill:url(#linear-gradient-100)"/><path d="M21.76,105.56c-.12-.18-.27-.39-.42-.66a1.48,1.48,0,0,1-.24-1.11,1.2,1.2,0,0,1,.66-.84,1.33,1.33,0,0,1,1.14-.15,1.74,1.74,0,0,1,.9.9,3.67,3.67,0,0,1,.3.6ZM23.53,104a1.77,1.77,0,0,0-.12-.24A.9.9,0,0,0,22,103.4a.86.86,0,0,0-.36,1.29.79.79,0,0,0,.18.27Z" transform="translate(-1.33 -1.33)" style="fill:url(#linear-gradient-101)"/><path d="M20,102.32l2.39-1.2.21.45-2.4,1.2Z" transform="translate(-1.33 -1.33)" style="fill:url(#linear-gradient-102)"/><path d="M21,98.37a2.63,2.63,0,0,1,.51.72,1.64,1.64,0,0,1,.12,1.11,1.4,1.4,0,0,1-.75.75,1.35,1.35,0,0,1-1.88-.78,1.64,1.64,0,0,1-.18-.69l.39-.06a1.34,1.34,0,0,0,.15.6,1,1,0,0,0,1.79-.78.64.64,0,0,0-.21-.3l-.6.27.21.42-.36.15-.38-.87Z" transform="translate(-1.33 -1.33)" style="fill:url(#linear-gradient-103)"/><path d="M18.11,98.07l2.48-1,.18.45-2.48,1Z" transform="translate(-1.33 -1.33)" style="fill:url(#linear-gradient-104)"/><path d="M17.93,96.48l.27.72-.39.15-.72-1.88.39-.15.27.71,2.13-.77.18.45Z" transform="translate(-1.33 -1.33)" style="fill:url(#linear-gradient-105)"/><path d="M18.62,93.88l.78,0,.15.48H16.73l-.18-.6,2.28-1.65.15.51-.66.48Zm-.6-.63-.57.42a3.57,3.57,0,0,1-.45.27h0l.51,0h.69Z" transform="translate(-1.33 -1.33)" style="fill:url(#linear-gradient-106)"/><path d="M16,92.11l-.12-.48,2.19-.6-.3-1,.39-.12.42,1.52Z" transform="translate(-1.33 -1.33)" style="fill:url(#linear-gradient-107)"/><path d="M17.27,86.09a1.78,1.78,0,0,1,.27.66,1.27,1.27,0,0,1-1.05,1.62,1.33,1.33,0,0,1-1.67-1.11,1.72,1.72,0,0,1,0-.66l.38,0a1.62,1.62,0,0,0,0,.54.91.91,0,0,0,1.17.72.88.88,0,0,0,.75-1.11,1.31,1.31,0,0,0-.21-.51Z" transform="translate(-1.33 -1.33)" style="fill:url(#linear-gradient-108)"/><path d="M14.49,85.26,16,85c.51-.09.72-.33.66-.66s-.33-.51-.84-.45l-1.55.24-.09-.48,1.49-.24c.81-.12,1.26.24,1.35.87s-.18,1.08-1,1.19l-1.52.24Z" transform="translate(-1.33 -1.33)" style="fill:url(#linear-gradient-109)"/><path d="M14.13,82.62A3.76,3.76,0,0,1,14,81.9a1.35,1.35,0,0,1,.12-.84.74.74,0,0,1,.51-.3.73.73,0,0,1,.71.42h0a.63.63,0,0,1,.48-.42,5.2,5.2,0,0,0,.72-.3l.06.51a2.12,2.12,0,0,1-.6.24c-.33.12-.45.24-.42.54l0,.24,1.11-.12.06.48Zm1.13-.6,0-.3c0-.33-.24-.51-.5-.48s-.42.24-.36.57a1.69,1.69,0,0,0,.06.3Z" transform="translate(-1.33 -1.33)" style="fill:url(#linear-gradient-110)"/><path d="M13.86,79.9a4.27,4.27,0,0,1-.09-.75,1.32,1.32,0,0,1,.15-.84.78.78,0,0,1,.51-.27.66.66,0,0,1,.68.45h0a.69.69,0,0,1,.48-.42,6.62,6.62,0,0,0,.72-.27l0,.51c-.09,0-.3.12-.63.21s-.45.24-.45.51l0,.24,1.11-.06,0,.48ZM15,79.33l0-.3c0-.33-.2-.54-.47-.51s-.42.24-.39.54c0,.15,0,.24,0,.3Z" transform="translate(-1.33 -1.33)" style="fill:url(#linear-gradient-111)"/><path d="M15.11,75.61l0,1,.78,0,0-1.14h.39l0,1.62-2.69.06,0-1.56H14l0,1.08.69,0,0-1Z" transform="translate(-1.33 -1.33)" style="fill:url(#linear-gradient-112)"/><path d="M16.31,74.66l-2.69-.06V74l1.17-.66a7.45,7.45,0,0,1,.89-.45h0c-.36,0-.72,0-1.1,0l-.93,0v-.45l2.69.06V73l-1.2.66c-.29.15-.62.33-.92.45h1.13l1,0Z" transform="translate(-1.33 -1.33)" style="fill:url(#linear-gradient-113)"/><path d="M16.46,69.69a1.42,1.42,0,0,1,.06.68,1.26,1.26,0,0,1-1.44,1.26,1.36,1.36,0,0,1-1.31-1.53,1.42,1.42,0,0,1,.18-.62l.39.15a1.65,1.65,0,0,0-.15.5.91.91,0,0,0,.92,1,.86.86,0,0,0,1-.87,1.33,1.33,0,0,0-.06-.53Z" transform="translate(-1.33 -1.33)" style="fill:url(#linear-gradient-114)"/><path d="M16.7,68.31l-1.11-.12L14,68.85l.06-.54.72-.24.56-.18h0c-.15-.09-.33-.18-.5-.3l-.66-.39.06-.54,1.43,1.08,1.11.15Z" transform="translate(-1.33 -1.33)" style="fill:url(#linear-gradient-115)"/><path d="M16.88,65.1a.31.31,0,0,1-.27-.36.28.28,0,0,1,.36-.23.3.3,0,0,1,.27.35A.29.29,0,0,1,16.88,65.1Z" transform="translate(-1.33 -1.33)" style="fill:url(#linear-gradient-116)"/><path d="M15.08,62a4,4,0,0,1,.12-.72,1.17,1.17,0,0,1,.39-.75.63.63,0,0,1,.57-.09.73.73,0,0,1,.54.63h0a.66.66,0,0,1,.6-.24,4.92,4.92,0,0,0,.78,0l-.12.48a3.14,3.14,0,0,1-.66,0c-.36,0-.51.09-.57.36l-.06.24,1.08.24-.12.48Zm1.26-.21.06-.27c.06-.33-.06-.57-.3-.63s-.48.12-.54.42-.06.24,0,.3Z" transform="translate(-1.33 -1.33)" style="fill:url(#linear-gradient-117)"/><path d="M17.69,59.3l.66.41-.15.48-2.34-1.55L16,58l2.82-.12-.15.51-.81,0Zm-.15-.84-.69,0h-.51l.45.27.57.39Z" transform="translate(-1.33 -1.33)" style="fill:url(#linear-gradient-118)"/><path d="M19.61,55.22a3.69,3.69,0,0,1-.12.87,1.62,1.62,0,0,1-.66.9,1.27,1.27,0,0,1-1,0,1.35,1.35,0,0,1-.84-1.86,1.33,1.33,0,0,1,.36-.63l.33.24a1.28,1.28,0,0,0-.3.54.9.9,0,0,0,.6,1.23A.92.92,0,0,0,19.16,56a1.06,1.06,0,0,0,.06-.36l-.63-.21-.15.45-.36-.12.3-.9Z" transform="translate(-1.33 -1.33)" style="fill:url(#linear-gradient-119)"/><path d="M19.52,54.26a1.23,1.23,0,0,0,.39-.53c.12-.3,0-.51-.18-.6s-.36,0-.6.3-.63.54-1,.39a.83.83,0,0,1-.39-1.17,1.12,1.12,0,0,1,.36-.54l.33.24a1,1,0,0,0-.3.45c-.12.3,0,.48.15.54s.33,0,.6-.33.63-.51,1-.36.62.6.38,1.23a1.46,1.46,0,0,1-.41.62Z" transform="translate(-1.33 -1.33)" style="fill:url(#linear-gradient-120)"/><path d="M21.1,51a.26.26,0,0,1-.15-.39.32.32,0,0,1,.42-.15.28.28,0,0,1,.15.39A.28.28,0,0,1,21.1,51Z" transform="translate(-1.33 -1.33)" style="fill:url(#linear-gradient-121)"/><path d="M20.12,47.59a4.7,4.7,0,0,1,.29-.72,1.66,1.66,0,0,1,.78-.84,1.28,1.28,0,0,1,1.08.09A1.39,1.39,0,0,1,23,47a1.86,1.86,0,0,1-.24,1.26,4.16,4.16,0,0,1-.33.57Zm2.24.6a2.77,2.77,0,0,1,.15-.24.93.93,0,0,0-.45-1.38A.85.85,0,0,0,20.8,47a1.47,1.47,0,0,0-.12.3Z" transform="translate(-1.33 -1.33)" style="fill:url(#linear-gradient-122)"/><path d="M23.62,44.17l-.51.87.69.39.57-1,.36.21-.81,1.41-2.31-1.35.78-1.34.36.21-.54.92.6.36.51-.87Z" transform="translate(-1.33 -1.33)" style="fill:url(#linear-gradient-123)"/><path d="M26.1,42.32a1.49,1.49,0,0,1-.27.66A1.27,1.27,0,0,1,24,43.4a1.35,1.35,0,0,1-.42-2,1.76,1.76,0,0,1,.45-.48l.27.3a1.54,1.54,0,0,0-.36.39A.89.89,0,0,0,24.22,43a.85.85,0,0,0,1.31-.27,1.42,1.42,0,0,0,.21-.51Z" transform="translate(-1.33 -1.33)" style="fill:url(#linear-gradient-124)"/><path d="M26.49,39.8l-.57.84.66.45.66-.93.33.24-.93,1.32-2.18-1.56.9-1.29.32.24-.62.87.56.39.57-.84Z" transform="translate(-1.33 -1.33)" style="fill:url(#linear-gradient-125)"/><path d="M28,39.74,25.89,38.1l.33-.45,1.32.15a8.38,8.38,0,0,1,1,.18h0a7.56,7.56,0,0,1-.9-.66l-.75-.57.27-.36L29.28,38l-.3.39-1.35-.18-1-.18h0l.93.68.75.6Z" transform="translate(-1.33 -1.33)" style="fill:url(#linear-gradient-126)"/><path d="M28.5,35.49l-.51.57-.3-.27L29,34.26l.3.27-.51.6,1.74,1.47-.33.36Z" transform="translate(-1.33 -1.33)" style="fill:url(#linear-gradient-127)"/><path d="M29.58,33.69a4.39,4.39,0,0,1,.45-.56,1.31,1.31,0,0,1,.71-.45.58.58,0,0,1,.54.21.69.69,0,0,1,.15.8h0a.63.63,0,0,1,.63.09,3.87,3.87,0,0,0,.69.36l-.33.36a3.43,3.43,0,0,1-.6-.3c-.3-.18-.48-.18-.66,0l-.18.18.81.75-.33.36Zm1.19.45.21-.21a.44.44,0,0,0,0-.69c-.21-.2-.44-.14-.65.09s-.18.18-.18.24Z" transform="translate(-1.33 -1.33)" style="fill:url(#linear-gradient-128)"/><path d="M33.2,32.65l.36.71-.36.36-1.26-2.51.45-.45,2.49,1.32-.39.36-.72-.36Zm.3-.81-.6-.33-.45-.27h0l.27.45.3.63Z" transform="translate(-1.33 -1.33)" style="fill:url(#linear-gradient-129)"/><path d="M33.65,29.56l.36-.33,1.53,1.71.8-.75.27.3-1.19,1.05Z" transform="translate(-1.33 -1.33)" style="fill:url(#linear-gradient-130)"/><path d="M35.83,27.65l1.71,2.06-.39.3L35.45,28Z" transform="translate(-1.33 -1.33)" style="fill:url(#linear-gradient-131)"/><path d="M38,29l-.15-2.42h0l-1,.78-.24-.33,1.5-1.17.18.24.15,2.39h0l1.08-.83.24.32-1.59,1.26Z" transform="translate(-1.33 -1.33)" style="fill:url(#linear-gradient-132)"/><path d="M40.9,25.67l-.81.6.45.63.92-.66.24.33-1.31.93-1.56-2.19,1.26-.9.24.33-.87.63.39.57.81-.6Z" transform="translate(-1.33 -1.33)" style="fill:url(#linear-gradient-133)"/><path d="M40.9,23.9a6.49,6.49,0,0,1,.62-.48,1.71,1.71,0,0,1,1.08-.33,1.22,1.22,0,0,1,.9.6,1.32,1.32,0,0,1,.24,1.11,1.74,1.74,0,0,1-.81,1,4.33,4.33,0,0,1-.57.33Zm1.64,1.65.24-.15a.92.92,0,0,0,.3-1.41.86.86,0,0,0-1.32-.27,2.91,2.91,0,0,0-.27.21Z" transform="translate(-1.33 -1.33)" style="fill:url(#linear-gradient-134)"/><path d="M44.7,21.54a4.21,4.21,0,0,1,.66-.42,1.47,1.47,0,0,1,1.1-.24,1.2,1.2,0,0,1,.84.66,1.33,1.33,0,0,1,.15,1.14,1.76,1.76,0,0,1-.9.89,3.64,3.64,0,0,1-.59.3Zm1.53,1.76c.05,0,.14-.06.23-.12a.89.89,0,0,0,.39-1.37.85.85,0,0,0-1.28-.36.79.79,0,0,0-.27.18Z" transform="translate(-1.33 -1.33)" style="fill:url(#linear-gradient-135)"/><path d="M47.93,19.77l1.2,2.4-.45.21L47.48,20Z" transform="translate(-1.33 -1.33)" style="fill:url(#linear-gradient-136)"/><path d="M51.88,20.76a2.55,2.55,0,0,1-.71.51,1.64,1.64,0,0,1-1.11.12,1.31,1.31,0,0,1-.75-.75,1.35,1.35,0,0,1,.78-1.89,1.64,1.64,0,0,1,.69-.18l.06.39a1.34,1.34,0,0,0-.6.15.9.9,0,0,0-.48,1.29.92.92,0,0,0,1.26.51.64.64,0,0,0,.3-.21l-.27-.6-.42.21L50.48,20l.87-.39Z" transform="translate(-1.33 -1.33)" style="fill:url(#linear-gradient-137)"/><path d="M52.18,17.88l1,2.49-.45.18-1-2.49Z" transform="translate(-1.33 -1.33)" style="fill:url(#linear-gradient-138)"/><path d="M53.74,17.7,53,18l-.15-.39,1.89-.71.15.39-.72.27L55,19.65l-.45.18Z" transform="translate(-1.33 -1.33)" style="fill:url(#linear-gradient-139)"/><path d="M56.38,18.36l0,.81-.48.15V16.51l.6-.18,1.64,2.27-.51.15-.48-.66Zm.59-.57-.41-.56a3.57,3.57,0,0,1-.27-.45h0c0,.15,0,.36,0,.51V18Z" transform="translate(-1.33 -1.33)" style="fill:url(#linear-gradient-140)"/><path d="M58.14,15.82l.48-.12.6,2.18,1.05-.3.12.39-1.53.42Z" transform="translate(-1.33 -1.33)" style="fill:url(#linear-gradient-141)"/><path d="M64.13,17a1.78,1.78,0,0,1-.66.27,1.25,1.25,0,0,1-1.61-1.05A1.34,1.34,0,0,1,63,14.56a1.72,1.72,0,0,1,.66,0l0,.39a1.62,1.62,0,0,0-.54,0,.91.91,0,0,0-.72,1.17.88.88,0,0,0,1.11.75,1.31,1.31,0,0,0,.51-.21Z" transform="translate(-1.33 -1.33)" style="fill:url(#linear-gradient-142)"/><path d="M65,14.23l.24,1.56c.09.51.33.72.66.66s.51-.33.45-.84l-.24-1.56.48-.09.24,1.5c.12.81-.24,1.26-.87,1.35s-1.08-.18-1.2-1l-.24-1.53Z" transform="translate(-1.33 -1.33)" style="fill:url(#linear-gradient-143)"/><path d="M67.63,13.87a3.76,3.76,0,0,1,.72-.15,1.35,1.35,0,0,1,.84.12.71.71,0,0,1-.12,1.23h0a.63.63,0,0,1,.42.48,5.2,5.2,0,0,0,.3.72l-.51.06a2.12,2.12,0,0,1-.24-.6c-.12-.33-.24-.45-.54-.42l-.24,0,.12,1.11-.48.06Zm.6,1.14.3,0c.33,0,.51-.24.48-.51s-.24-.39-.57-.36a1.69,1.69,0,0,0-.3.06Z" transform="translate(-1.33 -1.33)" style="fill:url(#linear-gradient-144)"/><path d="M70.36,13.6a4.27,4.27,0,0,1,.75-.09,1.32,1.32,0,0,1,.84.15.78.78,0,0,1,.27.51.67.67,0,0,1-.45.69h0a.69.69,0,0,1,.42.48,7.34,7.34,0,0,0,.26.72l-.5,0a2.89,2.89,0,0,1-.21-.63c-.09-.36-.24-.45-.51-.45L71,15l.06,1.11-.48,0Zm.57,1.14.3,0c.33,0,.54-.21.51-.48s-.24-.42-.54-.39-.24,0-.3,0Z" transform="translate(-1.33 -1.33)" style="fill:url(#linear-gradient-145)"/><path d="M74.64,14.86l-1,0,0,.78,1.14,0V16l-1.62,0-.06-2.7,1.56,0v.39l-1.08,0,0,.69,1,0Z" transform="translate(-1.33 -1.33)" style="fill:url(#linear-gradient-146)"/><path d="M75.57,16.06l.06-2.67h.57l.66,1.17a8.38,8.38,0,0,1,.45.9h0c0-.36,0-.72,0-1.11l0-.93h.44l-.06,2.67h-.5l-.66-1.2c-.15-.3-.33-.63-.45-.93h0V15.1l0,1Z" transform="translate(-1.33 -1.33)" style="fill:url(#linear-gradient-147)"/><path d="M80.54,16.21a1.49,1.49,0,0,1-.69.06,1.26,1.26,0,0,1-1.26-1.44,1.36,1.36,0,0,1,1.53-1.32,1.43,1.43,0,0,1,.63.18l-.15.39a1.73,1.73,0,0,0-.51-.15.92.92,0,0,0-1,.93.86.86,0,0,0,.87,1,1.41,1.41,0,0,0,.54-.06Z" transform="translate(-1.33 -1.33)" style="fill:url(#linear-gradient-148)"/><path d="M82,16.45l.12-1.11-.66-1.65.54.06.24.72c.06.21.12.36.18.57h0c.09-.15.18-.33.3-.51l.38-.66.54.06-1.07,1.44-.12,1.11Z" transform="translate(-1.33 -1.33)" style="fill:url(#linear-gradient-149)"/><path d="M85.15,16.63a.31.31,0,0,1,.36-.27.29.29,0,0,1,.24.36.31.31,0,0,1-.36.27A.29.29,0,0,1,85.15,16.63Z" transform="translate(-1.33 -1.33)" style="fill:url(#linear-gradient-150)"/></svg>